<svg version="1.2" xmlns="http://www.w3.org/2000/svg" viewBox="0 0 972 867" width="972" height="867">
	<title>icon-svg</title>
	<style>
		.s0 { fill: #1e7766 } 
		.s1 { fill: #cd3333 } 
	</style>
	<filter id="f0">
		<feFlood flood-color="#ffffff" flood-opacity="1" />
		<feBlend mode="normal" in2="SourceGraphic"/>
		<feComposite in2="SourceAlpha" operator="in" />
	</filter>
	<g id="Folder 1" filter="url(#f0)">
		<path id="Layer" fill-rule="evenodd" class="s0" d="m730.8 866.2h-488.3c0.3-0.3 0.4-0.7 0.2-1.1q-0.3-0.8-0.7-1.5-1.7-3.1-3.5-6.2-23.3-41.5-46.7-83.1-21.6-38.3-43.1-76.6-19.4-34.4-38.7-68.7-25.5-45.4-51-90.8-26.8-47.7-53.7-95.4-2.3-4.1-4.6-8.3-0.1-0.6-0.1-1.1c1-1.8 2-3.7 3-5.5q8.2-14.6 16.5-29.3 21.4-38.1 42.9-76.2 29.2-51.9 58.3-103.8 23.9-42.5 47.8-85 29-51.5 58-103 8.1-14.5 16.3-28.9 4.1 0 8.3 0 234.4 0 468.9 0 2.1 0 4.1 0 1.1 0 2.1-0.1c0.9 0 1.6-0.3 2.3-0.7h1.7c-0.2 0.3-0.3 0.7-0.1 1.1q0.6 1.3 1.3 2.6 8.6 15.4 17.2 30.7 36.5 65 73 129.8 38.4 68.2 76.7 136.3 32.7 58.2 65.5 116.5 2.4 4.3 4.9 8.6c0.6 1.1 1.2 2.2 1.7 3.3 0 0.3 0.3 0.4 0.6 0.4v6.6c-0.2 0.2-0.5 0.4-0.5 0.6-0.5 1.2-1 2.3-1.6 3.4q-3.5 6.1-7 12.3-25.3 45-50.6 90-27 47.9-53.9 95.8-25.2 44.9-50.4 89.8-38.1 67.6-76.1 135.2-0.3 0.5-0.6 1.1-0.2 0.6-0.1 1.2zm-15.1-22.8c0.5 0.2 0.8 0 1.1-0.3 0.3-0.3 0.7-0.6 0.9-0.9 0.6-0.9 1.1-1.9 1.7-2.8q6.8-12.2 13.6-24.3 27.1-48.1 54.1-96.2 21.5-38.2 42.9-76.3 25.1-44.5 50.1-89 22-39.1 44-78.1 11-19.6 21.9-39.1c0.2-0.4 0.4-0.7 0.6-1.1 0.5-0.9 0.5-1.9 0.1-2.8q-0.5-0.9-1-1.8-14.9-26.6-29.9-53.2-28.8-51.2-57.6-102.4-24.9-44.3-49.9-88.6-31.3-55.7-62.6-111.4-13.1-23.3-26.3-46.7-1-1.8-2.1-3.5c-0.3-0.5-0.8-0.8-1.4-0.8q-2.7-0.1-5.3-0.1-63.4-0.1-126.7-0.1-30.3 0-60.6 0.1-128.1 0-256.1 0-4 0-7.9 0-0.8 0-1.7 0.1c-0.2 0.1-0.5 0.2-0.7 0.4-0.3 0.2-0.7 0.5-0.9 0.8q-1 1.6-1.9 3.3-19 33.8-38 67.6-36.1 64.2-72.2 128.4-26.2 46.5-52.3 93-31.4 55.7-62.7 111.4-1 1.8-2 3.6-0.2 0.4-0.2 0.8c-0.1 0.3-0.1 0.6 0 0.8 0.2 1 0.7 1.8 1.2 2.6q5.2 9.3 10.4 18.5 34.4 61.3 68.9 122.6 31.3 55.6 62.5 111.1 30.6 54.4 61.2 108.9 11.7 20.8 23.4 41.6 0.8 1.4 1.7 2.8c0.4 0.6 1.1 0.9 1.8 1 0.4 0.1 0.8 0.1 1.2 0.1q2.5 0.1 5 0.1 19.3 0 38.6 0 203.4 0 406.9 0c2.1 0 4.1-0.1 6.2-0.1z"/>
		<path id="Layer" class="s0" d="m243.4 1.7q0-0.4 0-0.8 242.8 0 485.7 0c-0.7 0.4-1.5 0.7-2.3 0.7q-1 0.1-2.1 0.1-2 0-4.1 0-234.5 0-468.9 0-4.2 0-8.3 0z"/>
		<path id="Layer" class="s0" d="m715.7 843.4c0.3-0.4 0.7-0.4 1.1-0.3-0.3 0.3-0.6 0.5-1.1 0.3z"/>
		<path id="Layer" class="s0" d="m420 481.7c-0.1-0.5-0.2-1.1-0.2-1.6q0-1.9 0-3.8 0-202.4 0-404.7c0-1.7 0.1-3.4 0.1-5q0.7-0.1 1.5-0.1c1 0.6 1.7 1.5 2.5 2.2q21 20.4 42 40.7 39.4 38.2 78.7 76.3 1.2 1.2 2.4 2.3c0.5 0.6 0.7 1.2 0.7 1.9q0 0.6 0 1.3 0 1.4 0 2.9 0 116.2 0 232.5c0 1.5 0.2 3-0.1 4.5-0.1 0.3-0.2 0.6-0.4 0.7q-0.9 0.5-1.9 0.9-4.8 1.9-9.6 3.9-55.5 22-111 44c-0.9 0.4-1.8 0.7-2.7 1.1-0.4 0.1-0.8 0.1-1.3 0.2q-0.3-0.2-0.7-0.2z"/>
		<path id="Layer" class="s0" d="m588 729.8c-0.1-0.6-0.2-1.1-0.2-1.7q0-1.6 0-3.3 0-85.3 0-170.6c0-1.5-0.2-3.1 0.2-4.6 0-0.2 0.2-0.5 0.4-0.6q0.9-0.6 1.8-1 8.3-3.3 16.6-6.5 51.3-20.4 102.6-40.7 2.1-0.9 4.3-1.7c0.3-0.1 0.8-0.2 1.2-0.2 0.3 0 0.5 0.2 0.6 0.5q0.1 0.4 0.2 0.8 0 2 0 4.1 0 110 0 220.1c0 1.5 0 3-0.1 4.5 0 0.5-0.2 0.8-0.5 1.1-1.8-0.3-3.6-0.2-5.4-0.2q-57.5 0-115.1 0-3.3 0-6.6 0z"/>
		<path id="Layer" class="s1" d="m267 797.4c-0.1-0.4-0.3-0.8-0.3-1.2q0-1.6 0-3.3 0-17.3 0-34.6c0-1.3-0.2-2.7 0.2-4.1q0.5-0.3 1-0.6c0.6-0.1 1.2-0.2 1.7-0.2q1.8 0 3.5 0 218.7 0 437.3 0c1.7 0 3.5 0.1 5.2 0.1 0.6 0 1.1 0.6 1.2 1.1 0 0.3 0.1 0.5 0.1 0.8q0 0.8 0 1.7 0 18.7 0 37.3c0 0.7 0 1.4-0.1 2.1 0 0.5-0.3 0.8-0.6 1.1-2-0.3-4-0.2-6.1-0.2q-219.1 0-438.3 0-2.4 0-4.8 0z"/>
		<path id="Layer" class="s0" d="m546.7 729.8c-1.5 0.1-3 0.2-4.5 0.2q-32.4 0-64.8 0-26.1 0-52.3 0c-1.4 0-2.7-0.1-4.1-0.2-0.5 0-1.1-0.5-1.1-1 0-0.4-0.1-0.9-0.1-1.3q0-1.2 0-2.5 0-54.5 0-109.1c0-1.3 0.1-2.5 0.1-3.8 0-0.4 0.3-0.7 0.6-0.9q0.7-0.5 1.5-0.8 10.4-4.1 20.8-8.2 49.9-19.9 99.9-39.7c1.3-0.5 2.6-1 3.9-1.4 0.3-0.1 0.9 0.1 0.9 0.5 0.1 0.4 0.2 0.8 0.2 1.2q0 1.7 0 3.3 0 79.1 0 158.2 0 1.7 0 3.3c0 0.5-0.1 1.1-0.2 1.6-0.3 0.1-0.6 0.3-0.8 0.6z"/>
		<path id="Layer" class="s0" d="m588.8 214q1.5 1.4 3 2.9 53.8 52.1 107.6 104.3 6.9 6.6 13.7 13.3 1.1 1 2 2 0.5 0.4 0.6 1.2 0 0.6 0 1.2 0 14.1 0 28.2 0 0.7 0 1.3c-0.1 0.8-0.6 1.2-1.2 1.5-0.9 0.5-1.8 0.8-2.7 1.1q-10.4 4.2-20.8 8.3-48.8 19.4-97.6 38.7-2.1 0.8-4.2 1.6c-0.8 0.3-1.3-0.1-1.3-1q-0.1-0.8-0.1-1.7 0-1.6 0-3.3 0-96.7 0-193.4c0-2.1 0.1-4.2 0.1-6.3q0.5 0 0.9 0.1z"/>
		<path id="Layer" class="s1" d="m715.6 445c0 0.7 0.1 1.4 0.1 2.1q0 12.9 0 25.7c0 0.7-0.1 1.4-0.1 2.1 0 0.5-0.4 0.7-0.7 0.9q-0.7 0.5-1.5 0.7-9.8 4-19.7 7.8-47.2 18.8-94.4 37.5-4.2 1.7-8.4 3.4c-0.7 0.2-1.3 0.4-2 0.6-0.3 0.1-0.9-0.2-1-0.5 0-0.4-0.1-0.9-0.1-1.3q0-13.4 0-26.9 0-0.5 0-0.9 0-1.4 1.2-1.9 1.4-0.6 2.7-1.1 10.2-4.1 20.4-8.1 49.2-19.5 98.3-39c1.4-0.6 2.8-1.1 4.3-1.6q0.4 0.3 0.8 0.5z"/>
		<path id="Layer" class="s1" d="m420.1 588q-0.3-0.8-0.3-1.6 0-2.5 0-5 0-10.8 0-21.6c0-0.8-0.1-1.7 0.3-2.4q0.4-0.1 0.5-0.6c1.4-0.6 2.7-1.2 4.2-1.7q43.1-17.2 86.3-34.3 16.1-6.4 32.3-12.8 1.6-0.6 3.1-1.1c0.3-0.1 0.6-0.1 0.8 0.1 0.2 0.1 0.3 0.5 0.3 0.7q0.1 0.6 0.1 1.3 0 13.2 0 26.5c0 0.6 0 1.1-0.1 1.7-0.1 0.4-0.2 0.7-0.7 0.9-0.5 0.3-1 0.5-1.5 0.7q-1.1 0.5-2.3 1-59.1 23.4-118.3 46.9-1.5 0.6-3 1.2c-0.4 0.1-0.9 0.1-1.3 0.2q-0.2-0.2-0.5-0.1z"/>
		<path id="Layer" class="s1" d="m587.9 471.6c0-0.7-0.1-1.4-0.1-2.1q0-12 0-24 0-1.1 0.2-2.1c0-0.2 0.2-0.5 0.4-0.7q1.3-0.6 2.7-1.1 13.6-5.5 27.3-10.9 46.6-18.5 93.2-37c1-0.4 2-1 3.2-1 0.2 0 0.5 0.2 0.7 0.3 0.1 0.1 0.1 0.3 0.1 0.4 0 0.4 0.1 0.8 0.1 1.3q0 12.2 0 24.4c0 0.6-0.1 1.1-0.2 1.7 0 0.3-0.2 0.5-0.4 0.6-0.8 0.6-1.7 0.9-2.6 1.3q-15.4 6.1-30.8 12.2-45.1 17.9-90.2 35.8-1.3 0.5-2.7 1-0.4 0-0.9-0.1z"/>
		<path id="Layer" class="s1" d="m547.7 455q0 1.3 0 2.5 0 11.2 0 22.4 0 1.4-0.1 2.9c0 0.6-0.4 1-0.9 1.2q-1.3 0.6-2.7 1.1-8.1 3.3-16.2 6.5-51.2 20.3-102.4 40.6c-1 0.4-2 1-3.1 1.1q-1.2 0-2.4-0.1c0-0.8-0.1-1.6-0.1-2.5q0-11.2 0-22.3c0-0.9 0-1.7 0.1-2.5 0-0.5 0.4-0.8 0.7-0.9q0.9-0.5 1.9-0.9 14.4-5.7 28.8-11.5 46-18.2 92-36.5 1.7-0.7 3.4-1.4 0.5 0.2 1 0.3z"/>
		<path id="Layer" class="s0" d="m588 729.8q3.3 0 6.6 0 57.5 0 115.1 0c1.8 0 3.6-0.1 5.4 0.2-0.5 0.3-1 0.5-1.6 0.5q-0.8 0.1-1.6 0.1-1.7 0-3.4 0-57 0-114.1 0-2.3 0-4.6-0.1c-0.7 0-1.3-0.2-1.8-0.7z"/>
		<path id="Layer" class="s0" d="m419.9 533.2q1.2 0.1 2.4 0.1c-0.4 0.4-0.9 0.7-1.4 0.8-0.5 0.1-0.9-0.3-1-0.9z"/>
		<path id="Layer" class="s0" d="m421.4 66.5q-0.7 0-1.5 0.1c-0.1-0.4 0-0.8 0.4-0.9 0.2-0.1 0.5 0.1 0.7 0.2 0.1 0.1 0.2 0.2 0.2 0.3q0.1 0.1 0.2 0.3z"/>
		<path id="Layer" class="s0" d="m587.9 471.6q0.5 0.1 0.9 0.2c-0.5 0.4-0.6 0.4-0.9-0.2z"/>
		<path id="Layer" class="s0" d="m420.6 556.9q-0.1 0.4-0.5 0.5 0-0.5 0.5-0.5z"/>
		<path id="Layer" class="s0" d="m420.1 588q0.2-0.1 0.4 0.1c-0.2 0.3-0.4 0.4-0.4-0.1z"/>
		<path id="Layer" class="s0" d="m265.7 538.3c0-0.6-0.2-1.1-0.2-1.7 0-1.2 0-2.5 0-3.7q0-57.7 0-115.5c0-1.3 0-2.7 0-4.1 0-1 0.4-1.9 1.1-2.6 0.6-0.5 1.2-1.2 1.7-1.7q53.4-54.1 106.8-108.1 1.6-1.6 3.3-3.1c0.2-0.2 0.5-0.3 0.7-0.3 0.3 0.1 0.5 0.2 0.7 0.4 0.1 0.3 0.2 0.6 0.2 0.8q0 2.1 0 4.2 0 92.2 0 184.3 0 2.3-0.1 4.6c0 0.6-0.2 1.1-0.8 1.3q-1.3 0.6-2.7 1.1-5.9 2.4-11.8 4.8-48 19.3-96 38.5-1 0.4-1.9 0.8-0.5 0-1-0.1z"/>
		<path id="Layer" class="s0" d="m265.7 728.4c0-0.4-0.2-0.8-0.2-1.2q0-1.9 0-3.8 0-25.3 0-50.6c0-1.4 0-2.8 0.1-4.1 0-0.8 0.4-1.3 1.1-1.6q0.6-0.3 1.1-0.5 3.9-1.5 7.7-3.1 49.5-19.8 99-39.7c1.4-0.6 2.8-1.1 4.2-1.6 0.5-0.2 1.2 0.3 1.2 0.8q0.1 0.6 0.1 1.2 0 1.2 0 2.5 0 48.7 0 97.5c0 1.4 0.1 2.8-0.2 4.1q-3.3 0.1-6.5 0.1-50.9 0-101.8 0-2.9 0-5.8 0z"/>
		<path id="Layer" class="s1" d="m379.9 567.9c0.1 1 0.1 2 0.1 2.9q0 12.3 0 24.5c0 1-0.1 2-0.1 2.9-0.1 0.5-0.4 0.8-0.7 1q-1.3 0.6-2.6 1.2-9.4 3.7-18.7 7.5-43.1 17.2-86.1 34.5-2.5 1-5 1.9c-0.2 0.1-0.6 0.1-0.8-0.1-0.2-0.1-0.3-0.4-0.4-0.6-0.1-0.3-0.1-0.6-0.1-0.9q0-1 0-2 0-11.9 0-23.7 0-1.4 0.1-2.9c0.1-0.4 0.3-0.8 0.7-1 1.2-0.5 2.5-1.1 3.7-1.6q21-8.4 41.9-16.8 32.1-12.9 64.1-25.8 1.5-0.6 3-1.2 0.4 0.1 0.9 0.2z"/>
		<path id="Layer" class="s1" d="m265.5 575.8q0-5.4 0-10.8 0-1.3 0.1-2.5c0-0.6 0.3-1.1 0.8-1.3q1.5-0.8 3-1.3 8.7-3.6 17.5-7.1 44.5-17.8 89.1-35.7c0.9-0.4 1.8-0.7 2.7-1 0.5-0.3 1.1 0.1 1.2 0.6 0 0.5 0.1 0.9 0.1 1.3q0 12.2 0 24.5c0 0.5-0.1 1.1-0.2 1.6q0 0.4-0.4 0.7c-0.5 0.2-0.9 0.6-1.4 0.8q-6.5 2.6-13 5.1-47 18.9-94 37.8c-1.5 0.6-3 1.4-4.6 1.7-0.3 0-0.6-0.1-0.7-0.4 0-0.2-0.2-0.5-0.2-0.8q0-1.4 0-2.9 0-5.2 0-10.3z"/>
		<path id="Layer" class="s0" d="m265.7 728.4c2 0 3.9 0 5.8 0q50.9 0 101.8 0 3.2 0 6.5-0.1c-0.2 0.4-0.5 0.7-0.9 0.8-0.4 0-0.8 0.1-1.2 0.1q-1.7 0-3.3 0-51.6 0-103.2 0c-1.5 0-3 0.1-4.5-0.1-0.4-0.1-0.7-0.4-1-0.7z"/>
		<path id="Layer" class="s0" d="m379.9 567.9q-0.4-0.1-0.9-0.2c0.5-0.4 0.7-0.4 0.9 0.2z"/>
		<path id="Layer" class="s0" d="m265.7 538.3q0.5 0 1 0c-0.1 0.1-0.2 0.2-0.2 0.3-0.4 0.2-0.5 0.1-0.8-0.4z"/>
		<path id="Layer" class="s0" d="m420 481.7q0.4 0 0.7 0.2c0 0.1-0.1 0.2-0.2 0.3q-0.5 0.3-0.5-0.5z"/>
		<path id="Layer" class="s0" d="m536.5 729c0.1-0.4 0.4-0.5 0.8-0.6-0.2 0.6-0.2 0.6-0.8 0.6z"/>
		<path id="Layer" class="s0" d="m537.4 454.1q-0.5-0.1-0.9-0.3c0.5-0.3 0.7-0.3 0.9 0.3z"/>
		<path id="Layer" class="s0" d="m266.6 753.4q-0.4 0.4-0.9 0.7c0.2-0.7 0.2-0.7 0.9-0.7z"/>
		<path id="Layer" class="s0" d="m715.6 445q-0.5-0.2-0.9-0.5c0.1-0.1 0.2-0.2 0.3-0.2 0.5-0.1 0.6 0.2 0.6 0.7z"/>
		<path id="Layer" class="s0" d="m564.8 214.2q-0.5 0-1-0.1c0.4-0.6 0.5-0.5 1 0.1z"/>
	</g>
</svg>