<?xml version="1.0" encoding="UTF-8"?><svg id="Ebene_1" xmlns="http://www.w3.org/2000/svg" viewBox="0 0 4724.03 940.3"><defs><style>.cls-1{fill:#1d1d1b;}.cls-1,.cls-2,.cls-3,.cls-4{stroke-width:0px;}.cls-2{fill:#1e7766;}.cls-3{fill:#cd3333;}.cls-4{fill:#333;}</style></defs><path class="cls-2" d="m758.81,897.22h-488.28c.25-.35.38-.72.19-1.13-.23-.5-.46-1.01-.73-1.49-1.14-2.05-2.3-4.1-3.45-6.15-15.59-27.72-31.17-55.43-46.76-83.15-14.37-25.54-28.74-51.09-43.12-76.63-12.88-22.89-25.76-45.79-38.64-68.68-17.01-30.24-34.02-60.49-51.03-90.74-17.89-31.81-35.79-63.62-53.68-95.43-1.56-2.77-3.1-5.55-4.64-8.33-.02-.37-.04-.74-.06-1.11,1-1.82,1.97-3.65,2.99-5.46,5.49-9.76,10.99-19.52,16.48-29.28,14.31-25.42,28.62-50.85,42.92-76.27,19.45-34.59,38.89-69.19,58.33-103.78,15.92-28.32,31.86-56.64,47.78-84.96,19.32-34.35,38.63-68.7,57.95-103.04,5.42-9.64,10.87-19.26,16.31-28.9,2.77,0,5.53,0,8.3,0,156.3,0,312.6,0,468.91,0,1.38,0,2.77,0,4.15,0,.69,0,1.38-.03,2.07-.07.85-.04,1.62-.33,2.34-.76h1.66c-.21.37-.34.78-.15,1.17.41.87.85,1.74,1.32,2.58,5.75,10.25,11.5,20.5,17.27,30.74,24.33,43.27,48.67,86.53,73,129.79,25.55,45.43,51.11,90.87,76.66,136.3,21.82,38.81,43.65,77.61,65.47,116.42,1.63,2.89,3.25,5.78,4.88,8.67.61,1.08,1.26,2.15,1.7,3.32.09.24.36.35.67.36v6.64c-.2.18-.49.33-.57.56-.42,1.17-.97,2.28-1.58,3.37-2.32,4.09-4.62,8.19-6.93,12.29-16.88,30.02-33.76,60.04-50.64,90.05-17.97,31.94-35.95,63.88-53.91,95.83-16.81,29.9-33.62,59.8-50.43,89.7-25.35,45.09-50.7,90.18-76.05,135.26-.2.36-.42.72-.6,1.09-.18.38-.2.8-.1,1.21Zm-15.1-22.82c.45.19.8.04,1.07-.34.3-.28.68-.51.9-.84.6-.93,1.14-1.89,1.68-2.86,4.55-8.08,9.1-16.15,13.64-24.23,18.04-32.07,36.09-64.14,54.13-96.22,14.31-25.44,28.61-50.89,42.92-76.33,16.68-29.66,33.38-59.32,50.07-88.98,14.65-26.04,29.31-52.08,43.96-78.13,7.32-13.02,14.63-26.06,21.94-39.08.2-.36.43-.71.6-1.09.44-.92.51-1.86.05-2.8-.31-.62-.64-1.23-.98-1.83-9.96-17.73-19.92-35.46-29.89-53.19-19.2-34.12-38.41-68.23-57.61-102.35-16.62-29.54-33.23-59.08-49.84-88.63-20.88-37.14-41.76-74.28-62.65-111.42-8.75-15.55-17.52-31.1-26.28-46.64-.68-1.2-1.39-2.39-2.1-3.57-.3-.5-.81-.78-1.38-.8-1.8-.06-3.59-.11-5.39-.11-42.21-.01-84.42-.02-126.62-.02-20.2,0-40.41.02-60.61.02-85.38,0-170.77,0-256.15,0-2.63,0-5.26,0-7.89.01-.55,0-1.1.06-1.65.15-.26.04-.53.18-.74.34-.32.26-.67.53-.88.87-.65,1.06-1.26,2.15-1.87,3.23-12.69,22.55-25.37,45.09-38.06,67.64-24.08,42.8-48.16,85.61-72.23,128.41-17.43,30.99-34.86,61.97-52.29,92.97-20.88,37.14-41.75,74.29-62.63,111.43-.68,1.21-1.35,2.42-2.01,3.63-.13.24-.22.51-.27.78-.04.27-.06.56,0,.81.24.95.78,1.77,1.25,2.61,3.45,6.16,6.9,12.31,10.36,18.46,22.99,40.88,45.98,81.75,68.97,122.63,20.82,37.02,41.64,74.03,62.46,111.05,20.41,36.29,40.82,72.59,61.24,108.89,7.8,13.87,15.6,27.73,23.4,41.6.54.96,1.1,1.92,1.71,2.85.4.6,1.04.89,1.74,1.02.41.07.83.08,1.24.09,1.66.02,3.32.05,4.98.05,12.87,0,25.74,0,38.61,0,135.62,0,271.24,0,406.86,0,2.08,0,4.15-.05,6.23-.08Z"/><path class="cls-2" d="m271.37,32.69c0-.28-.01-.56-.02-.83,161.93,0,323.86,0,485.79,0-.72.43-1.5.71-2.34.76-.69.04-1.38.06-2.07.07-1.38.01-2.77,0-4.15,0-156.3,0-312.6,0-468.91,0-2.77,0-5.53,0-8.3,0Z"/><path class="cls-2" d="m743.71,874.4c.28-.35.65-.44,1.07-.34-.27.38-.62.53-1.07.34Z"/><path class="cls-2" d="m448.01,512.71c-.07-.55-.19-1.09-.21-1.64-.03-1.24-.02-2.49-.02-3.74,0-134.93,0-269.85,0-404.78,0-1.66.08-3.32.12-4.98.5-.02.99-.04,1.49-.06.97.57,1.67,1.44,2.46,2.2,14.02,13.57,28.03,27.14,42.05,40.72,26.24,25.42,52.48,50.84,78.72,76.26.79.77,1.57,1.56,2.36,2.34.52.52.72,1.16.73,1.87,0,.42.02.83.02,1.25,0,.97,0,1.94,0,2.91,0,77.5,0,154.99,0,232.49,0,1.52.14,3.05-.15,4.55-.05.25-.21.55-.41.67-.58.36-1.2.69-1.83.95-3.21,1.29-6.42,2.55-9.64,3.83-37.01,14.69-74.03,29.38-111.04,44.07-.9.36-1.79.73-2.7,1.05-.38.14-.81.16-1.22.23-.22-.15-.46-.22-.72-.2Z"/><path class="cls-2" d="m615.97,760.78c-.06-.55-.15-1.1-.16-1.65-.03-1.11-.02-2.21-.02-3.32,0-56.88,0-113.76,0-170.63,0-1.52-.15-3.05.17-4.55.05-.24.22-.54.43-.66.59-.35,1.21-.68,1.85-.93,5.52-2.21,11.05-4.4,16.58-6.59,34.19-13.57,68.38-27.13,102.57-40.7,1.41-.56,2.83-1.13,4.26-1.65.37-.14.81-.16,1.21-.16.29,0,.54.2.63.43.1.25.17.53.18.8.03,1.38.05,2.77.05,4.15,0,73.35,0,146.69,0,220.04,0,1.52-.05,3.04-.07,4.56,0,.45-.29.75-.57,1.06-1.78-.29-3.58-.16-5.37-.16-38.37,0-76.73,0-115.1,0-2.21,0-4.42-.02-6.62-.03Z"/><path class="cls-3" d="m294.97,828.44c-.08-.4-.22-.8-.24-1.21-.05-1.1-.05-2.2-.05-3.3,0-11.54,0-23.08,0-34.61,0-1.37-.15-2.75.25-4.1.32-.22.64-.45.96-.67.58-.04,1.16-.11,1.75-.12,1.17-.02,2.34-.01,3.51-.01,145.74,0,291.49,0,437.23,0,1.75,0,3.5.07,5.25.11.53.01,1.11.58,1.15,1.06.03.27.09.55.1.82.02.55.03,1.11.03,1.66,0,12.45,0,24.91,0,37.36,0,.69-.05,1.38-.07,2.07-.01.45-.3.75-.59,1.06-2.03-.31-4.08-.16-6.13-.16-146.11,0-292.22,0-438.32,0-1.61,0-3.21.02-4.82.03Z"/><path class="cls-2" d="m574.74,760.85c-1.52.04-3.04.11-4.56.11-21.58,0-43.17,0-64.75,0-17.43,0-34.87,0-52.3,0-1.38,0-2.76-.07-4.14-.12-.49-.02-1.04-.59-1.08-1.07-.03-.41-.1-.82-.11-1.24-.02-.83-.01-1.66-.01-2.49,0-36.39,0-72.78,0-109.17,0-1.24.06-2.49.09-3.73.01-.46.32-.77.66-.99.46-.29.97-.53,1.48-.73,6.94-2.76,13.88-5.52,20.81-8.27,33.28-13.21,66.56-26.43,99.85-39.64,1.28-.51,2.59-.96,3.89-1.43.37-.13.93.16.97.49.06.41.16.81.17,1.22.03,1.11.02,2.21.02,3.32,0,52.72,0,105.44,0,158.15,0,1.11.02,2.21-.02,3.32-.02.55-.12,1.1-.19,1.64-.34.11-.62.29-.8.61Z"/><path class="cls-2" d="m616.83,244.95c.98.98,1.95,1.97,2.94,2.93,35.88,34.76,71.76,69.52,107.64,104.28,4.57,4.43,9.14,8.86,13.71,13.3.69.67,1.36,1.38,2.02,2.09.28.3.47.68.51,1.11.04.41.07.83.07,1.24,0,9.41,0,18.82,0,28.23,0,.41-.02.83-.04,1.24-.04.78-.54,1.27-1.17,1.57-.87.42-1.79.74-2.69,1.1-6.94,2.76-13.88,5.51-20.82,8.26-32.52,12.9-65.04,25.81-97.56,38.71-1.41.56-2.84,1.09-4.27,1.62-.75.28-1.27-.13-1.3-1.03-.02-.55-.05-1.11-.05-1.66,0-1.11,0-2.21,0-3.32,0-64.49,0-128.98,0-193.47,0-2.07.06-4.15.09-6.22.31,0,.62.01.93.02Z"/><path class="cls-3" d="m743.57,476.03c.05.69.14,1.38.14,2.07,0,8.57,0,17.15,0,25.72,0,.69-.08,1.38-.11,2.07-.02.49-.39.73-.73.94-.46.29-.97.52-1.49.72-6.55,2.61-13.1,5.21-19.65,7.8-31.46,12.49-62.93,24.97-94.39,37.46-2.83,1.12-5.65,2.25-8.48,3.36-.64.25-1.31.44-1.97.65-.33.11-.93-.24-.96-.56-.04-.41-.14-.82-.14-1.22,0-8.99,0-17.98,0-26.96,0-.28.03-.55.02-.83-.02-.93.4-1.59,1.23-1.96.88-.39,1.78-.74,2.68-1.1,6.81-2.7,13.61-5.4,20.42-8.11,32.75-13,65.5-25.99,98.25-38.98,1.41-.56,2.85-1.06,4.27-1.59.3.18.59.35.89.53Z"/><path class="cls-3" d="m448.06,618.99c-.19-.52-.27-1.07-.27-1.63,0-1.66-.01-3.32-.01-4.98,0-7.19,0-14.38,0-21.57,0-.83-.05-1.66.28-2.45.29-.05.46-.22.51-.51,1.4-.6,2.78-1.23,4.19-1.79,28.76-11.41,57.53-22.82,86.3-34.23,10.79-4.28,21.57-8.56,32.36-12.83,1.03-.41,2.06-.79,3.11-1.13.23-.08.6-.02.79.13.19.14.28.47.32.73.07.41.08.83.08,1.24,0,8.85,0,17.7,0,26.55,0,.55-.02,1.11-.12,1.65-.07.39-.24.78-.68.97-.51.22-.99.5-1.5.71-.76.32-1.54.61-2.31.92-39.43,15.63-78.85,31.27-118.28,46.9-1.03.41-2.04.85-3.08,1.23-.38.14-.81.12-1.22.18-.15-.13-.31-.15-.49-.09Z"/><path class="cls-3" d="m615.93,502.6c-.04-.69-.13-1.38-.13-2.07,0-8.02-.01-16.04,0-24.06,0-.69.07-1.38.18-2.06.04-.24.23-.55.44-.66.86-.43,1.74-.83,2.64-1.19,9.11-3.62,18.24-7.23,27.35-10.85,31.07-12.34,62.14-24.68,93.21-37.01,1.02-.4,2-.98,3.14-1,.24,0,.49.19.71.34.09.06.11.25.12.39.05.41.11.82.11,1.23,0,8.16.01,16.31,0,24.47,0,.55-.09,1.09-.16,1.64-.04.3-.21.5-.45.66-.81.54-1.72.86-2.62,1.22-10.27,4.07-20.54,8.17-30.81,12.24-30.05,11.93-60.09,23.85-90.14,35.77-.9.36-1.79.73-2.69,1.09-.3-.06-.6-.11-.9-.17Z"/><path class="cls-3" d="m575.68,486.01c.02.83.06,1.66.06,2.49,0,7.46,0,14.93,0,22.39,0,.97-.04,1.93-.11,2.89-.04.6-.41,1.02-.94,1.26-.88.39-1.78.74-2.68,1.1-5.39,2.15-10.77,4.31-16.17,6.45-34.15,13.55-68.3,27.11-102.45,40.64-1.02.4-2,.96-3.13,1.07-.79-.03-1.57-.06-2.36-.09-.04-.83-.12-1.65-.12-2.48,0-7.46,0-14.91,0-22.37,0-.83.07-1.65.12-2.48.03-.47.37-.74.72-.93.61-.32,1.24-.6,1.88-.85,9.62-3.83,19.23-7.65,28.85-11.47,30.65-12.17,61.3-24.33,91.96-36.5,1.15-.46,2.29-.96,3.43-1.44.31.11.62.21.93.32Z"/><path class="cls-2" d="m615.97,760.78c2.21,0,4.42.03,6.62.03,38.37,0,76.73,0,115.1,0,1.79,0,3.59-.13,5.37.16-.48.29-.99.5-1.55.55-.55.05-1.1.09-1.66.1-1.11.02-2.21.01-3.32.01-38.04,0-76.09,0-114.13,0-1.52,0-3.04-.03-4.56-.09-.7-.03-1.35-.27-1.88-.77Z"/><path class="cls-2" d="m447.9,564.21c.79.03,1.57.06,2.36.09-.36.42-.83.65-1.36.77-.51.11-.9-.22-1-.86Z"/><path class="cls-2" d="m449.4,97.52c-.5.02-.99.04-1.49.06-.07-.39.01-.76.4-.88.19-.06.46.12.68.22.1.05.18.16.25.26.07.1.11.22.16.34Z"/><path class="cls-2" d="m615.93,502.6c.3.06.6.11.9.17-.51.43-.61.41-.9-.17Z"/><path class="cls-2" d="m448.58,587.86c-.05.29-.22.46-.51.51q0-.51.51-.51Z"/><path class="cls-2" d="m448.06,618.99c.18-.07.35-.04.49.09-.22.3-.41.42-.49-.09Z"/><path class="cls-2" d="m293.73,569.25c-.08-.55-.21-1.09-.23-1.64-.04-1.24-.02-2.49-.02-3.74,0-38.48,0-76.95,0-115.43,0-1.38.03-2.77.02-4.15,0-1.03.35-1.87,1.1-2.58.6-.56,1.16-1.17,1.74-1.76,35.59-36.01,71.18-72.03,106.78-108.04,1.06-1.08,2.15-2.13,3.26-3.16.18-.16.51-.25.75-.22.23.03.51.21.64.41.14.21.18.52.18.8.03,1.38.05,2.77.05,4.15,0,61.45,0,122.9,0,184.35,0,1.52-.03,3.04-.09,4.56-.02.56-.25,1.08-.83,1.32-.88.37-1.76.75-2.65,1.11-3.93,1.59-7.87,3.19-11.8,4.77-32.02,12.85-64.04,25.69-96.06,38.53-.64.25-1.27.52-1.9.77-.31-.02-.62-.05-.93-.07Z"/><path class="cls-2" d="m293.74,759.39c-.07-.41-.2-.81-.21-1.22-.04-1.24-.04-2.49-.04-3.73,0-16.87,0-33.75,0-50.62,0-1.38,0-2.77.07-4.15.04-.74.47-1.28,1.15-1.58.38-.16.76-.32,1.14-.47,2.54-1.02,5.07-2.05,7.61-3.07,33.01-13.26,66.02-26.51,99.03-39.76,1.39-.56,2.81-1.07,4.22-1.59.49-.18,1.17.26,1.2.76.03.41.07.83.08,1.24.02.83.01,1.66.01,2.49,0,32.5,0,65,0,97.5,0,1.38.12,2.77-.17,4.14-2.19.01-4.38.03-6.57.03-33.92,0-67.85,0-101.77,0-1.91,0-3.83.02-5.74.03Z"/><path class="cls-3" d="m407.92,598.94c.03.97.08,1.94.08,2.9,0,8.16,0,16.33,0,24.49,0,.96-.07,1.93-.13,2.89-.03.45-.33.79-.68.97-.85.43-1.73.81-2.62,1.17-6.22,2.51-12.45,5-18.67,7.5-28.7,11.52-57.41,23.05-86.11,34.57-1.65.66-3.31,1.29-4.99,1.89-.23.08-.58.03-.78-.1-.2-.13-.33-.42-.41-.67-.08-.26-.09-.55-.1-.82-.02-.69-.03-1.38-.03-2.07,0-7.89,0-15.77,0-23.66,0-.96.06-1.93.15-2.89.04-.4.23-.81.64-.99,1.25-.56,2.49-1.13,3.76-1.64,13.97-5.61,27.95-11.21,41.92-16.82,21.34-8.56,42.67-17.13,64.01-25.71,1.02-.41,2.02-.84,3.03-1.27.31.08.61.17.92.25Z"/><path class="cls-3" d="m293.47,606.75c0-3.59,0-7.19,0-10.78,0-.83.03-1.66.08-2.48.04-.59.33-1.08.84-1.33.98-.48,1.99-.91,3-1.31,5.84-2.35,11.68-4.67,17.52-7.02,29.69-11.92,59.39-23.84,89.08-35.76.89-.36,1.79-.68,2.68-1.02.55-.21,1.17.16,1.21.69.03.41.09.82.09,1.24,0,8.16.01,16.31,0,24.47,0,.55-.09,1.1-.15,1.64-.03.3-.17.53-.42.67-.47.27-.93.59-1.43.79-4.31,1.74-8.63,3.46-12.95,5.19-31.34,12.59-62.68,25.18-94.02,37.76-1.51.61-2.98,1.36-4.61,1.66-.32.06-.55-.08-.64-.35-.09-.26-.21-.52-.22-.78-.05-.97-.07-1.93-.07-2.9,0-3.46,0-6.91,0-10.37h0Z"/><path class="cls-2" d="m293.74,759.39c1.91,0,3.83-.03,5.74-.03,33.92,0,67.85,0,101.77,0,2.19,0,4.38-.02,6.57-.03-.23.34-.47.67-.92.72-.41.05-.81.11-1.22.12-1.09.02-2.18.02-3.28.02-34.4,0-68.8,0-103.19,0-1.5,0-3,.09-4.5-.12-.44-.06-.71-.36-.97-.68Z"/><path class="cls-2" d="m407.92,598.94c-.31-.08-.61-.17-.92-.25.52-.41.65-.37.92.25Z"/><path class="cls-2" d="m293.73,569.25c.31.02.62.05.93.07-.07.09-.12.2-.2.25-.33.21-.47.14-.72-.33Z"/><path class="cls-2" d="m448.01,512.71c.27-.02.51.05.72.2-.06.08-.11.2-.2.25-.33.2-.52.04-.53-.45Z"/><path class="cls-2" d="m564.46,759.96c.18-.32.46-.5.8-.61-.12.64-.13.65-.8.61Z"/><path class="cls-2" d="m565.4,485.12c-.31-.11-.62-.21-.93-.32.57-.34.69-.3.93.32Z"/><path class="cls-2" d="m294.62,784.43c-.3.22-.6.45-.9.67.16-.68.17-.68.9-.67Z"/><path class="cls-2" d="m743.57,476.03c-.3-.18-.59-.35-.89-.53.11-.06.22-.15.34-.17.44-.09.6.12.55.7Z"/><path class="cls-2" d="m592.76,245.16c-.31,0-.62-.01-.93-.02.36-.59.51-.58.93.02Z"/><rect class="cls-3" x="987.97" y="445.37" width="3736.07" height="38.34"/><path class="cls-1" d="m1166.51,690.81l18.15-59.7h27.3l-29.7,83.7h-31.65l-29.7-83.7h27.45l18.15,59.7Z"/><path class="cls-1" d="m1316.21,679.11h-58.05c.4,5.2,2.07,9.18,5.02,11.92,2.95,2.75,6.57,4.12,10.88,4.12,6.4,0,10.85-2.7,13.35-8.1h27.3c-1.4,5.5-3.93,10.45-7.58,14.85-3.65,4.4-8.23,7.85-13.72,10.35-5.5,2.5-11.65,3.75-18.45,3.75-8.2,0-15.5-1.75-21.9-5.25-6.4-3.5-11.4-8.5-15-15-3.6-6.5-5.4-14.1-5.4-22.8s1.77-16.3,5.33-22.8c3.55-6.5,8.52-11.5,14.92-15,6.4-3.5,13.75-5.25,22.05-5.25s15.3,1.7,21.6,5.1c6.3,3.4,11.22,8.25,14.78,14.55,3.55,6.3,5.33,13.65,5.33,22.05,0,2.4-.15,4.9-.45,7.5Zm-25.8-14.25c0-4.4-1.5-7.9-4.5-10.5-3-2.6-6.75-3.9-11.25-3.9s-7.93,1.25-10.88,3.75c-2.95,2.5-4.78,6.05-5.48,10.65h32.1Z"/><path class="cls-1" d="m1382.06,634.19c4.5-2.65,9.5-3.97,15-3.97v27.15h-7.05c-6.4,0-11.2,1.38-14.4,4.12-3.2,2.75-4.8,7.58-4.8,14.48v38.85h-25.65v-83.7h25.65v13.95c3-4.6,6.75-8.22,11.25-10.88Z"/><path class="cls-1" d="m1471.69,633.51c4.45,2.4,7.88,5.55,10.28,9.45v-11.85h25.65v83.55c0,7.7-1.53,14.67-4.58,20.93-3.05,6.25-7.7,11.22-13.95,14.92-6.25,3.7-14.03,5.55-23.33,5.55-12.4,0-22.45-2.92-30.15-8.78-7.7-5.85-12.1-13.78-13.2-23.77h25.35c.8,3.2,2.7,5.72,5.7,7.58,3,1.85,6.7,2.77,11.1,2.77,5.3,0,9.53-1.53,12.67-4.58,3.15-3.05,4.73-7.93,4.73-14.62v-11.85c-2.5,3.9-5.95,7.08-10.35,9.53-4.4,2.45-9.55,3.67-15.45,3.67-6.9,0-13.15-1.77-18.75-5.33-5.6-3.55-10.03-8.6-13.27-15.15-3.25-6.55-4.88-14.12-4.88-22.72s1.62-16.15,4.88-22.65c3.25-6.5,7.67-11.5,13.27-15,5.6-3.5,11.85-5.25,18.75-5.25,5.9,0,11.07,1.2,15.53,3.6Zm4.95,24.3c-3.55-3.7-7.88-5.55-12.98-5.55s-9.43,1.83-12.97,5.47c-3.55,3.65-5.33,8.68-5.33,15.08s1.77,11.47,5.33,15.22c3.55,3.75,7.88,5.62,12.97,5.62s9.42-1.85,12.98-5.55c3.55-3.7,5.33-8.75,5.33-15.15s-1.78-11.45-5.33-15.15Z"/><path class="cls-1" d="m1566.86,603.81v111h-25.65v-111h25.65Z"/><path class="cls-1" d="m1678.91,679.11h-58.05c.4,5.2,2.07,9.18,5.02,11.92,2.95,2.75,6.57,4.12,10.88,4.12,6.4,0,10.85-2.7,13.35-8.1h27.3c-1.4,5.5-3.93,10.45-7.58,14.85-3.65,4.4-8.23,7.85-13.72,10.35-5.5,2.5-11.65,3.75-18.45,3.75-8.2,0-15.5-1.75-21.9-5.25-6.4-3.5-11.4-8.5-15-15-3.6-6.5-5.4-14.1-5.4-22.8s1.77-16.3,5.33-22.8c3.55-6.5,8.52-11.5,14.92-15,6.4-3.5,13.75-5.25,22.05-5.25s15.3,1.7,21.6,5.1c6.3,3.4,11.22,8.25,14.78,14.55,3.55,6.3,5.33,13.65,5.33,22.05,0,2.4-.15,4.9-.45,7.5Zm-25.8-14.25c0-4.4-1.5-7.9-4.5-10.5-3-2.6-6.75-3.9-11.25-3.9s-7.93,1.25-10.88,3.75c-2.95,2.5-4.78,6.05-5.48,10.65h32.1Z"/><path class="cls-1" d="m1709.73,618.44c-2.85-2.65-4.27-5.92-4.27-9.83s1.42-7.32,4.27-9.97c2.85-2.65,6.53-3.98,11.03-3.98s8.02,1.33,10.88,3.98c2.85,2.65,4.27,5.98,4.27,9.97s-1.42,7.18-4.27,9.83c-2.85,2.65-6.48,3.97-10.88,3.97s-8.17-1.32-11.03-3.97Zm23.78,12.67v83.7h-25.65v-83.7h25.65Z"/><path class="cls-1" d="m1767.33,650.16c3.55-6.5,8.5-11.5,14.85-15,6.35-3.5,13.62-5.25,21.83-5.25,10.5,0,19.27,2.75,26.33,8.25,7.05,5.5,11.67,13.25,13.88,23.25h-27.3c-2.3-6.4-6.75-9.6-13.35-9.6-4.7,0-8.45,1.83-11.25,5.47-2.8,3.65-4.2,8.88-4.2,15.68s1.4,12.03,4.2,15.67c2.8,3.65,6.55,5.47,11.25,5.47,6.6,0,11.05-3.2,13.35-9.6h27.3c-2.2,9.8-6.85,17.5-13.95,23.1-7.1,5.6-15.85,8.4-26.25,8.4-8.2,0-15.48-1.75-21.83-5.25-6.35-3.5-11.3-8.5-14.85-15-3.55-6.5-5.33-14.1-5.33-22.8s1.77-16.3,5.33-22.8Z"/><path class="cls-1" d="m1947.41,639.74c5.8,6.35,8.7,15.08,8.7,26.17v48.9h-25.5v-45.45c0-5.6-1.45-9.95-4.35-13.05-2.9-3.1-6.8-4.65-11.7-4.65s-8.8,1.55-11.7,4.65c-2.9,3.1-4.35,7.45-4.35,13.05v45.45h-25.65v-111h25.65v38.55c2.6-3.7,6.15-6.65,10.65-8.85,4.5-2.2,9.55-3.3,15.15-3.3,9.6,0,17.3,3.18,23.1,9.52Z"/><path class="cls-1" d="m2067.41,679.11h-58.05c.4,5.2,2.07,9.18,5.02,11.92,2.95,2.75,6.57,4.12,10.88,4.12,6.4,0,10.85-2.7,13.35-8.1h27.3c-1.4,5.5-3.93,10.45-7.58,14.85-3.65,4.4-8.23,7.85-13.72,10.35-5.5,2.5-11.65,3.75-18.45,3.75-8.2,0-15.5-1.75-21.9-5.25-6.4-3.5-11.4-8.5-15-15-3.6-6.5-5.4-14.1-5.4-22.8s1.77-16.3,5.33-22.8c3.55-6.5,8.52-11.5,14.92-15,6.4-3.5,13.75-5.25,22.05-5.25s15.3,1.7,21.6,5.1c6.3,3.4,11.22,8.25,14.78,14.55,3.55,6.3,5.33,13.65,5.33,22.05,0,2.4-.15,4.9-.45,7.5Zm-25.8-14.25c0-4.4-1.5-7.9-4.5-10.5-3-2.6-6.75-3.9-11.25-3.9s-7.93,1.25-10.88,3.75c-2.95,2.5-4.78,6.05-5.48,10.65h32.1Z"/><path class="cls-1" d="m2170.83,639.74c5.85,6.35,8.77,15.08,8.77,26.17v48.9h-25.5v-45.45c0-5.6-1.45-9.95-4.35-13.05-2.9-3.1-6.8-4.65-11.7-4.65s-8.8,1.55-11.7,4.65c-2.9,3.1-4.35,7.45-4.35,13.05v45.45h-25.65v-83.7h25.65v11.1c2.6-3.7,6.1-6.62,10.5-8.78,4.4-2.15,9.35-3.22,14.85-3.22,9.8,0,17.62,3.18,23.48,9.52Z"/><path class="cls-1" d="m2261.73,677.54c-2.85-2.65-4.28-5.92-4.28-9.82s1.42-7.35,4.28-10.05c2.85-2.7,6.52-4.05,11.02-4.05s8.03,1.35,10.88,4.05c2.85,2.7,4.28,6.05,4.28,10.05s-1.42,7.18-4.28,9.82c-2.85,2.65-6.48,3.98-10.88,3.98s-8.17-1.32-11.02-3.98Z"/><path class="cls-1" d="m2367.78,618.44c-2.85-2.65-4.27-5.92-4.27-9.83s1.42-7.32,4.27-9.97c2.85-2.65,6.53-3.98,11.03-3.98s8.02,1.33,10.88,3.98c2.85,2.65,4.27,5.98,4.27,9.97s-1.42,7.18-4.27,9.83c-2.85,2.65-6.48,3.97-10.88,3.97s-8.17-1.32-11.03-3.97Zm23.78,12.67v83.7h-25.65v-83.7h25.65Z"/><path class="cls-1" d="m2499.63,639.74c5.85,6.35,8.77,15.08,8.77,26.17v48.9h-25.5v-45.45c0-5.6-1.45-9.95-4.35-13.05-2.9-3.1-6.8-4.65-11.7-4.65s-8.8,1.55-11.7,4.65c-2.9,3.1-4.35,7.45-4.35,13.05v45.45h-25.65v-83.7h25.65v11.1c2.6-3.7,6.1-6.62,10.5-8.78,4.4-2.15,9.35-3.22,14.85-3.22,9.8,0,17.62,3.18,23.48,9.52Z"/><path class="cls-1" d="m2587.9,693.06v21.75h-13.05c-9.3,0-16.55-2.27-21.75-6.83-5.2-4.55-7.8-11.97-7.8-22.27v-33.3h-10.2v-21.3h10.2v-20.4h25.65v20.4h16.8v21.3h-16.8v33.6c0,2.5.6,4.3,1.8,5.4,1.2,1.1,3.2,1.65,6,1.65h9.15Z"/><path class="cls-1" d="m2695.6,679.11h-58.05c.4,5.2,2.07,9.18,5.02,11.92,2.95,2.75,6.57,4.12,10.88,4.12,6.4,0,10.85-2.7,13.35-8.1h27.3c-1.4,5.5-3.93,10.45-7.58,14.85-3.65,4.4-8.23,7.85-13.72,10.35-5.5,2.5-11.65,3.75-18.45,3.75-8.2,0-15.5-1.75-21.9-5.25-6.4-3.5-11.4-8.5-15-15-3.6-6.5-5.4-14.1-5.4-22.8s1.77-16.3,5.33-22.8c3.55-6.5,8.52-11.5,14.92-15,6.4-3.5,13.75-5.25,22.05-5.25s15.3,1.7,21.6,5.1c6.3,3.4,11.22,8.25,14.78,14.55,3.55,6.3,5.33,13.65,5.33,22.05,0,2.4-.15,4.9-.45,7.5Zm-25.8-14.25c0-4.4-1.5-7.9-4.5-10.5-3-2.6-6.75-3.9-11.25-3.9s-7.93,1.25-10.88,3.75c-2.95,2.5-4.78,6.05-5.48,10.65h32.1Z"/><path class="cls-1" d="m2771.87,633.51c4.45,2.4,7.88,5.55,10.28,9.45v-11.85h25.65v83.55c0,7.7-1.53,14.67-4.58,20.93-3.05,6.25-7.7,11.22-13.95,14.92-6.25,3.7-14.03,5.55-23.33,5.55-12.4,0-22.45-2.92-30.15-8.78-7.7-5.85-12.1-13.78-13.2-23.77h25.35c.8,3.2,2.7,5.72,5.7,7.58,3,1.85,6.7,2.77,11.1,2.77,5.3,0,9.53-1.53,12.67-4.58,3.15-3.05,4.73-7.93,4.73-14.62v-11.85c-2.5,3.9-5.95,7.08-10.35,9.53-4.4,2.45-9.55,3.67-15.45,3.67-6.9,0-13.15-1.77-18.75-5.33-5.6-3.55-10.03-8.6-13.27-15.15-3.25-6.55-4.88-14.12-4.88-22.72s1.62-16.15,4.88-22.65c3.25-6.5,7.67-11.5,13.27-15,5.6-3.5,11.85-5.25,18.75-5.25,5.9,0,11.07,1.2,15.53,3.6Zm4.95,24.3c-3.55-3.7-7.88-5.55-12.98-5.55s-9.43,1.83-12.97,5.47c-3.55,3.65-5.33,8.68-5.33,15.08s1.77,11.47,5.33,15.22c3.55,3.75,7.88,5.62,12.97,5.62s9.42-1.85,12.98-5.55c3.55-3.7,5.33-8.75,5.33-15.15s-1.78-11.45-5.33-15.15Z"/><path class="cls-1" d="m2878.3,634.19c4.5-2.65,9.5-3.97,15-3.97v27.15h-7.05c-6.4,0-11.2,1.38-14.4,4.12-3.2,2.75-4.8,7.58-4.8,14.48v38.85h-25.65v-83.7h25.65v13.95c3-4.6,6.75-8.22,11.25-10.88Z"/><path class="cls-1" d="m2922.47,618.44c-2.85-2.65-4.27-5.92-4.27-9.83s1.42-7.32,4.27-9.97c2.85-2.65,6.53-3.98,11.03-3.98s8.02,1.33,10.88,3.98c2.85,2.65,4.27,5.98,4.27,9.97s-1.42,7.18-4.27,9.83c-2.85,2.65-6.48,3.97-10.88,3.97s-8.17-1.32-11.03-3.97Zm23.78,12.67v83.7h-25.65v-83.7h25.65Z"/><path class="cls-1" d="m3058.3,679.11h-58.05c.4,5.2,2.07,9.18,5.02,11.92,2.95,2.75,6.57,4.12,10.88,4.12,6.4,0,10.85-2.7,13.35-8.1h27.3c-1.4,5.5-3.93,10.45-7.58,14.85-3.65,4.4-8.23,7.85-13.72,10.35-5.5,2.5-11.65,3.75-18.45,3.75-8.2,0-15.5-1.75-21.9-5.25-6.4-3.5-11.4-8.5-15-15-3.6-6.5-5.4-14.1-5.4-22.8s1.77-16.3,5.33-22.8c3.55-6.5,8.52-11.5,14.92-15,6.4-3.5,13.75-5.25,22.05-5.25s15.3,1.7,21.6,5.1c6.3,3.4,11.22,8.25,14.78,14.55,3.55,6.3,5.33,13.65,5.33,22.05,0,2.4-.15,4.9-.45,7.5Zm-25.8-14.25c0-4.4-1.5-7.9-4.5-10.5-3-2.6-6.75-3.9-11.25-3.9s-7.93,1.25-10.88,3.75c-2.95,2.5-4.78,6.05-5.48,10.65h32.1Z"/><path class="cls-1" d="m3124.15,634.19c4.5-2.65,9.5-3.97,15-3.97v27.15h-7.05c-6.4,0-11.2,1.38-14.4,4.12-3.2,2.75-4.8,7.58-4.8,14.48v38.85h-25.65v-83.7h25.65v13.95c3-4.6,6.75-8.22,11.25-10.88Z"/><path class="cls-1" d="m3244.9,679.11h-58.05c.4,5.2,2.07,9.18,5.02,11.92,2.95,2.75,6.57,4.12,10.88,4.12,6.4,0,10.85-2.7,13.35-8.1h27.3c-1.4,5.5-3.93,10.45-7.58,14.85-3.65,4.4-8.23,7.85-13.72,10.35-5.5,2.5-11.65,3.75-18.45,3.75-8.2,0-15.5-1.75-21.9-5.25-6.4-3.5-11.4-8.5-15-15-3.6-6.5-5.4-14.1-5.4-22.8s1.77-16.3,5.33-22.8c3.55-6.5,8.52-11.5,14.92-15,6.4-3.5,13.75-5.25,22.05-5.25s15.3,1.7,21.6,5.1c6.3,3.4,11.22,8.25,14.78,14.55,3.55,6.3,5.33,13.65,5.33,22.05,0,2.4-.15,4.9-.45,7.5Zm-25.8-14.25c0-4.4-1.5-7.9-4.5-10.5-3-2.6-6.75-3.9-11.25-3.9s-7.93,1.25-10.88,3.75c-2.95,2.5-4.78,6.05-5.48,10.65h32.1Z"/><path class="cls-1" d="m3348.32,639.74c5.85,6.35,8.77,15.08,8.77,26.17v48.9h-25.5v-45.45c0-5.6-1.45-9.95-4.35-13.05-2.9-3.1-6.8-4.65-11.7-4.65s-8.8,1.55-11.7,4.65c-2.9,3.1-4.35,7.45-4.35,13.05v45.45h-25.65v-83.7h25.65v11.1c2.6-3.7,6.1-6.62,10.5-8.78,4.4-2.15,9.35-3.22,14.85-3.22,9.8,0,17.62,3.18,23.48,9.52Z"/><path class="cls-1" d="m3439.22,677.54c-2.85-2.65-4.28-5.92-4.28-9.82s1.42-7.35,4.28-10.05c2.85-2.7,6.52-4.05,11.02-4.05s8.03,1.35,10.88,4.05c2.85,2.7,4.28,6.05,4.28,10.05s-1.42,7.18-4.28,9.82c-2.85,2.65-6.48,3.98-10.88,3.98s-8.17-1.32-11.02-3.98Z"/><path class="cls-1" d="m3559.37,710.76c-6.55-3.5-11.7-8.5-15.45-15-3.75-6.5-5.62-14.1-5.62-22.8s1.9-16.17,5.7-22.73c3.8-6.55,9-11.57,15.6-15.08,6.6-3.5,14-5.25,22.2-5.25s15.6,1.75,22.2,5.25c6.6,3.5,11.8,8.53,15.6,15.08,3.8,6.55,5.7,14.13,5.7,22.73s-1.93,16.18-5.78,22.72c-3.85,6.55-9.1,11.58-15.75,15.08-6.65,3.5-14.08,5.25-22.27,5.25s-15.58-1.75-22.12-5.25Zm34.65-22.35c3.45-3.6,5.17-8.75,5.17-15.45s-1.68-11.85-5.02-15.45c-3.35-3.6-7.48-5.4-12.38-5.4s-9.15,1.78-12.45,5.33c-3.3,3.55-4.95,8.73-4.95,15.53s1.62,11.85,4.88,15.45c3.25,3.6,7.32,5.4,12.23,5.4s9.07-1.8,12.52-5.4Z"/><path class="cls-1" d="m3689.94,633.51c4.4-2.4,9.55-3.6,15.45-3.6,6.9,0,13.15,1.75,18.75,5.25,5.6,3.5,10.02,8.5,13.28,15,3.25,6.5,4.88,14.05,4.88,22.65s-1.63,16.18-4.88,22.72c-3.25,6.55-7.68,11.6-13.28,15.15-5.6,3.55-11.85,5.33-18.75,5.33-5.8,0-10.93-1.2-15.38-3.6-4.45-2.4-7.93-5.5-10.42-9.3v51.6h-25.65v-123.6h25.65v11.85c2.5-3.9,5.95-7.05,10.35-9.45Zm20.92,24.22c-3.55-3.65-7.93-5.47-13.12-5.47s-9.43,1.85-12.97,5.55c-3.55,3.7-5.33,8.75-5.33,15.15s1.77,11.45,5.33,15.15c3.55,3.7,7.88,5.55,12.97,5.55s9.45-1.88,13.05-5.62c3.6-3.75,5.4-8.82,5.4-15.22s-1.78-11.42-5.33-15.08Z"/><path class="cls-1" d="m3817.44,693.06v21.75h-13.05c-9.3,0-16.55-2.27-21.75-6.83-5.2-4.55-7.8-11.97-7.8-22.27v-33.3h-10.2v-21.3h10.2v-20.4h25.65v20.4h16.8v21.3h-16.8v33.6c0,2.5.6,4.3,1.8,5.4,1.2,1.1,3.2,1.65,6,1.65h9.15Z"/><path class="cls-1" d="m3848.56,618.44c-2.85-2.65-4.27-5.92-4.27-9.83s1.42-7.32,4.27-9.97c2.85-2.65,6.53-3.98,11.03-3.98s8.02,1.33,10.88,3.98c2.85,2.65,4.27,5.98,4.27,9.97s-1.42,7.18-4.27,9.83c-2.85,2.65-6.48,3.97-10.88,3.97s-8.17-1.32-11.03-3.97Zm23.78,12.67v83.7h-25.65v-83.7h25.65Z"/><path class="cls-1" d="m4037.56,639.66c6.15,6.3,9.23,15.05,9.23,26.25v48.9h-25.5v-45.45c0-5.4-1.43-9.57-4.28-12.52-2.85-2.95-6.78-4.43-11.78-4.43s-8.92,1.48-11.77,4.43c-2.85,2.95-4.28,7.12-4.28,12.52v45.45h-25.5v-45.45c0-5.4-1.42-9.57-4.27-12.52-2.85-2.95-6.78-4.43-11.78-4.43s-8.92,1.48-11.78,4.43c-2.85,2.95-4.27,7.12-4.27,12.52v45.45h-25.65v-83.7h25.65v10.5c2.6-3.5,6-6.27,10.2-8.33,4.2-2.05,8.95-3.07,14.25-3.07,6.3,0,11.92,1.35,16.88,4.05,4.95,2.7,8.82,6.55,11.62,11.55,2.9-4.6,6.85-8.35,11.85-11.25,5-2.9,10.45-4.35,16.35-4.35,10.4,0,18.68,3.15,24.83,9.45Z"/><path class="cls-1" d="m4081.66,618.44c-2.85-2.65-4.27-5.92-4.27-9.83s1.42-7.32,4.27-9.97c2.85-2.65,6.53-3.98,11.03-3.98s8.02,1.33,10.88,3.98c2.85,2.65,4.27,5.98,4.27,9.97s-1.42,7.18-4.27,9.83c-2.85,2.65-6.48,3.97-10.88,3.97s-8.17-1.32-11.03-3.97Zm23.78,12.67v83.7h-25.65v-83.7h25.65Z"/><path class="cls-1" d="m4217.49,679.11h-58.05c.4,5.2,2.07,9.18,5.02,11.92,2.95,2.75,6.57,4.12,10.88,4.12,6.4,0,10.85-2.7,13.35-8.1h27.3c-1.4,5.5-3.93,10.45-7.58,14.85-3.65,4.4-8.23,7.85-13.72,10.35-5.5,2.5-11.65,3.75-18.45,3.75-8.2,0-15.5-1.75-21.9-5.25-6.4-3.5-11.4-8.5-15-15-3.6-6.5-5.4-14.1-5.4-22.8s1.77-16.3,5.33-22.8c3.55-6.5,8.52-11.5,14.92-15,6.4-3.5,13.75-5.25,22.05-5.25s15.3,1.7,21.6,5.1c6.3,3.4,11.22,8.25,14.78,14.55,3.55,6.3,5.33,13.65,5.33,22.05,0,2.4-.15,4.9-.45,7.5Zm-25.8-14.25c0-4.4-1.5-7.9-4.5-10.5-3-2.6-6.75-3.9-11.25-3.9s-7.93,1.25-10.88,3.75c-2.95,2.5-4.78,6.05-5.48,10.65h32.1Z"/><path class="cls-1" d="m4283.33,634.19c4.5-2.65,9.5-3.97,15-3.97v27.15h-7.05c-6.4,0-11.2,1.38-14.4,4.12-3.2,2.75-4.8,7.58-4.8,14.48v38.85h-25.65v-83.7h25.65v13.95c3-4.6,6.75-8.22,11.25-10.88Z"/><path class="cls-1" d="m4404.08,679.11h-58.05c.4,5.2,2.07,9.18,5.02,11.92,2.95,2.75,6.57,4.12,10.88,4.12,6.4,0,10.85-2.7,13.35-8.1h27.3c-1.4,5.5-3.93,10.45-7.58,14.85-3.65,4.4-8.23,7.85-13.72,10.35-5.5,2.5-11.65,3.75-18.45,3.75-8.2,0-15.5-1.75-21.9-5.25-6.4-3.5-11.4-8.5-15-15-3.6-6.5-5.4-14.1-5.4-22.8s1.77-16.3,5.33-22.8c3.55-6.5,8.52-11.5,14.92-15,6.4-3.5,13.75-5.25,22.05-5.25s15.3,1.7,21.6,5.1c6.3,3.4,11.22,8.25,14.78,14.55,3.55,6.3,5.33,13.65,5.33,22.05,0,2.4-.15,4.9-.45,7.5Zm-25.8-14.25c0-4.4-1.5-7.9-4.5-10.5-3-2.6-6.75-3.9-11.25-3.9s-7.93,1.25-10.88,3.75c-2.95,2.5-4.78,6.05-5.48,10.65h32.1Z"/><path class="cls-1" d="m4507.51,639.74c5.85,6.35,8.77,15.08,8.77,26.17v48.9h-25.5v-45.45c0-5.6-1.45-9.95-4.35-13.05-2.9-3.1-6.8-4.65-11.7-4.65s-8.8,1.55-11.7,4.65c-2.9,3.1-4.35,7.45-4.35,13.05v45.45h-25.65v-83.7h25.65v11.1c2.6-3.7,6.1-6.62,10.5-8.78,4.4-2.15,9.35-3.22,14.85-3.22,9.8,0,17.62,3.18,23.48,9.52Z"/><path class="cls-4" d="m1178.65,110.93v47.95h-65.1v197.75h-59.85v-197.75h-65.1v-47.95h190.05Z"/><path class="cls-4" d="m1351.55,356.63l-51.1-92.75h-14.35v92.75h-59.85V110.93h100.45c19.36,0,35.88,3.39,49.52,10.15,13.65,6.77,23.85,16.04,30.62,27.83,6.76,11.79,10.15,24.91,10.15,39.38,0,16.33-4.61,30.92-13.83,43.75-9.22,12.83-22.81,21.93-40.78,27.3l56.7,97.3h-67.55Zm-65.45-135.1h37.1c10.96,0,19.19-2.68,24.67-8.05,5.48-5.36,8.22-12.95,8.22-22.75s-2.75-16.68-8.22-22.05c-5.49-5.36-13.71-8.05-24.67-8.05h-37.1v60.9Z"/><path class="cls-4" d="m1531.8,110.93v245.7h-59.85V110.93h59.85Z"/><path class="cls-4" d="m1633.3,350.33c-14.24-5.83-25.61-14.46-34.12-25.9-8.52-11.43-13.01-25.2-13.47-41.3h63.7c.93,9.1,4.08,16.04,9.45,20.83,5.37,4.79,12.37,7.17,21,7.17s15.87-2.04,21-6.12c5.13-4.08,7.7-9.74,7.7-16.97,0-6.07-2.04-11.08-6.12-15.05-4.08-3.96-9.1-7.23-15.05-9.8-5.95-2.56-14.41-5.48-25.38-8.75-15.87-4.9-28.82-9.8-38.85-14.7-10.04-4.9-18.67-12.13-25.9-21.7-7.24-9.57-10.85-22.05-10.85-37.45,0-22.87,8.28-40.78,24.85-53.73,16.56-12.95,38.15-19.42,64.75-19.42s48.88,6.48,65.45,19.42c16.56,12.95,25.43,30.98,26.6,54.08h-64.75c-.47-7.93-3.38-14.17-8.75-18.72-5.37-4.55-12.25-6.83-20.65-6.83-7.24,0-13.07,1.92-17.5,5.78-4.44,3.85-6.65,9.39-6.65,16.62,0,7.93,3.73,14.12,11.2,18.55,7.46,4.43,19.13,9.22,35,14.35,15.86,5.37,28.75,10.5,38.67,15.4,9.92,4.9,18.49,12.02,25.72,21.35,7.23,9.33,10.85,21.35,10.85,36.05s-3.56,26.72-10.67,38.15c-7.12,11.44-17.45,20.54-30.98,27.3-13.54,6.77-29.52,10.15-47.95,10.15s-34.07-2.92-48.3-8.75Z"/><path class="cls-4" d="m1985.39,110.93v47.95h-100.1v51.8h74.9v46.55h-74.9v99.4h-59.85V110.93h159.95Z"/><path class="cls-4" d="m2093.19,110.93v147c0,14.7,3.62,26.02,10.85,33.95,7.23,7.94,17.85,11.9,31.85,11.9s24.73-3.96,32.2-11.9c7.46-7.93,11.2-19.25,11.2-33.95V110.93h59.85v146.65c0,21.93-4.67,40.49-14,55.65-9.33,15.17-21.88,26.6-37.62,34.3-15.75,7.7-33.31,11.55-52.67,11.55s-36.7-3.79-51.98-11.38c-15.29-7.58-27.36-19.01-36.22-34.3-8.87-15.28-13.3-33.89-13.3-55.83V110.93h59.85Z"/><path class="cls-4" d="m2339.24,350.33c-14.24-5.83-25.61-14.46-34.12-25.9-8.52-11.43-13.01-25.2-13.47-41.3h63.7c.93,9.1,4.08,16.04,9.45,20.83,5.37,4.79,12.37,7.17,21,7.17s15.87-2.04,21-6.12c5.13-4.08,7.7-9.74,7.7-16.97,0-6.07-2.04-11.08-6.12-15.05-4.08-3.96-9.1-7.23-15.05-9.8-5.95-2.56-14.41-5.48-25.38-8.75-15.87-4.9-28.82-9.8-38.85-14.7-10.04-4.9-18.67-12.13-25.9-21.7-7.24-9.57-10.85-22.05-10.85-37.45,0-22.87,8.28-40.78,24.85-53.73,16.56-12.95,38.15-19.42,64.75-19.42s48.88,6.48,65.45,19.42c16.56,12.95,25.43,30.98,26.6,54.08h-64.75c-.47-7.93-3.38-14.17-8.75-18.72-5.37-4.55-12.25-6.83-20.65-6.83-7.24,0-13.07,1.92-17.5,5.78-4.44,3.85-6.65,9.39-6.65,16.62,0,7.93,3.73,14.12,11.2,18.55,7.46,4.43,19.13,9.22,35,14.35,15.86,5.37,28.75,10.5,38.67,15.4,9.92,4.9,18.49,12.02,25.72,21.35,7.23,9.33,10.85,21.35,10.85,36.05s-3.56,26.72-10.67,38.15c-7.12,11.44-17.45,20.54-30.98,27.3-13.54,6.77-29.52,10.15-47.95,10.15s-34.07-2.92-48.3-8.75Z"/><path class="cls-4" d="m2684.33,313.23h-91.7l-14.7,43.4h-62.65l88.9-245.7h69.3l88.9,245.7h-63.35l-14.7-43.4Zm-15.4-46.2l-30.45-89.95-30.1,89.95h60.55Z"/><path class="cls-4" d="m2904.13,168.51c10.5-19.01,25.14-33.83,43.92-44.45,18.78-10.61,40.08-15.92,63.88-15.92,29.17,0,54.13,7.7,74.9,23.1,20.76,15.4,34.65,36.4,41.65,63h-65.8c-4.9-10.26-11.84-18.08-20.82-23.45-8.99-5.37-19.2-8.05-30.62-8.05-18.44,0-33.37,6.42-44.8,19.25-11.43,12.84-17.15,29.99-17.15,51.45s5.71,38.62,17.15,51.45c11.43,12.83,26.37,19.25,44.8,19.25,11.43,0,21.64-2.68,30.62-8.05,8.98-5.37,15.92-13.18,20.82-23.45h65.8c-7,26.6-20.89,47.54-41.65,62.83-20.77,15.29-45.74,22.92-74.9,22.92-23.8,0-45.09-5.3-63.88-15.92-18.79-10.62-33.42-25.38-43.92-44.28-10.5-18.9-15.75-40.48-15.75-64.75s5.25-45.9,15.75-64.92Z"/><path class="cls-4" d="m3235.4,342.98c-19.25-10.73-34.54-25.72-45.85-44.97-11.32-19.25-16.98-40.89-16.98-64.92s5.66-45.62,16.98-64.75c11.31-19.13,26.6-34.07,45.85-44.8,19.25-10.73,40.42-16.1,63.53-16.1s44.27,5.37,63.52,16.1c19.25,10.73,34.42,25.67,45.5,44.8,11.08,19.13,16.62,40.72,16.62,64.75s-5.6,45.67-16.8,64.92-26.37,34.25-45.5,44.97c-19.13,10.74-40.25,16.1-63.35,16.1s-44.28-5.37-63.53-16.1Zm110.6-58.1c11.78-13.06,17.68-30.33,17.68-51.8s-5.9-39.03-17.68-51.98c-11.79-12.95-27.47-19.42-47.07-19.42s-35.65,6.42-47.43,19.25c-11.79,12.83-17.67,30.22-17.67,52.15s5.89,39.02,17.67,51.97c11.78,12.95,27.59,19.42,47.43,19.42s35.29-6.53,47.07-19.6Z"/><path class="cls-4" d="m3695.13,356.63h-59.85l-100.1-151.55v151.55h-59.85V110.93h59.85l100.1,152.25V110.93h59.85v245.7Z"/><path class="cls-4" d="m3975.82,356.63h-59.85l-100.1-151.55v151.55h-59.85V110.93h59.85l100.1,152.25V110.93h59.85v245.7Z"/><path class="cls-4" d="m4096.57,158.88v49.7h80.15v46.2h-80.15v53.9h90.65v47.95h-150.5V110.93h150.5v47.95h-90.65Z"/><path class="cls-4" d="m4249.17,168.51c10.5-19.01,25.14-33.83,43.92-44.45,18.78-10.61,40.08-15.92,63.88-15.92,29.17,0,54.13,7.7,74.9,23.1,20.76,15.4,34.65,36.4,41.65,63h-65.8c-4.9-10.26-11.84-18.08-20.82-23.45-8.99-5.37-19.2-8.05-30.62-8.05-18.44,0-33.37,6.42-44.8,19.25-11.43,12.84-17.15,29.99-17.15,51.45s5.71,38.62,17.15,51.45c11.43,12.83,26.37,19.25,44.8,19.25,11.43,0,21.64-2.68,30.62-8.05,8.98-5.37,15.92-13.18,20.82-23.45h65.8c-7,26.6-20.89,47.54-41.65,62.83-20.77,15.29-45.74,22.92-74.9,22.92-23.8,0-45.09-5.3-63.88-15.92-18.79-10.62-33.42-25.38-43.92-44.28-10.5-18.9-15.75-40.48-15.75-64.75s5.25-45.9,15.75-64.92Z"/><path class="cls-4" d="m4704.52,110.93v47.95h-65.1v197.75h-59.85v-197.75h-65.1v-47.95h190.05Z"/></svg>