<svg version="1.2" xmlns="http://www.w3.org/2000/svg" viewBox="0 0 4744 982" width="4744" height="982">
	<title>Logo_Trisfusa_2-svg</title>
	<style>
		.s0 { fill: #ffffff } 
	</style>
	<path id="Layer" fill-rule="evenodd" class="s0" d="m758.3 948.6h-488.2c0.2-0.4 0.3-0.8 0.2-1.2q-0.4-0.7-0.8-1.5-1.7-3-3.4-6.1-23.4-41.6-46.8-83.2-21.5-38.3-43.1-76.6-19.3-34.3-38.6-68.7-25.6-45.3-51.1-90.7-26.8-47.7-53.7-95.4-2.3-4.2-4.6-8.4 0-0.5-0.1-1.1c1-1.8 2-3.6 3-5.4q8.3-14.7 16.5-29.3 21.5-38.2 42.9-76.3 29.2-51.9 58.4-103.8 23.9-42.5 47.7-84.9 29-51.6 58-103.1 8.1-14.4 16.3-28.9 4.2 0 8.3 0 234.4 0 468.9 0 2.1 0 4.2 0 1 0 2 0c0.9-0.1 1.7-0.4 2.4-0.8h1.6c-0.2 0.4-0.3 0.8-0.1 1.2q0.6 1.3 1.3 2.5 8.6 15.4 17.3 30.8 36.5 64.9 73 129.8 38.3 68.1 76.6 136.3 32.8 58.2 65.5 116.4 2.4 4.3 4.9 8.7c0.6 1 1.2 2.1 1.7 3.3 0.1 0.2 0.3 0.3 0.7 0.3v6.7c-0.2 0.2-0.5 0.3-0.6 0.5-0.4 1.2-1 2.3-1.6 3.4q-3.5 6.2-6.9 12.3-25.3 45-50.7 90.1-26.9 47.9-53.9 95.8-25.2 44.8-50.4 89.7-38 67.6-76.1 135.2-0.3 0.6-0.6 1.1-0.2 0.6-0.1 1.3zm-15.1-22.9c0.5 0.2 0.8 0.1 1.1-0.3 0.3-0.3 0.7-0.5 0.9-0.8q0.9-1.4 1.7-2.9 6.8-12.1 13.6-24.2 27.1-48.1 54.2-96.3 21.4-38.1 42.9-76.3 25-44.5 50.1-89 21.9-39 43.9-78.1 11-19.5 22-39.1c0.2-0.3 0.4-0.7 0.6-1.1 0.4-0.9 0.5-1.8 0-2.8q-0.5-0.9-1-1.8-14.9-26.6-29.9-53.2-28.8-51.2-57.6-102.3-24.9-44.3-49.8-88.7-31.3-55.7-62.7-111.4-13.1-23.3-26.2-46.6-1.1-1.8-2.1-3.6c-0.3-0.5-0.9-0.8-1.4-0.8q-2.7-0.1-5.4-0.1-63.3 0-126.6 0-30.3 0-60.6 0-128.1 0-256.2 0-3.9 0-7.9 0-0.8 0-1.6 0.2c-0.3 0-0.6 0.1-0.8 0.3-0.3 0.3-0.6 0.5-0.9 0.9q-0.9 1.6-1.8 3.2-19.1 33.8-38.1 67.6-36.1 64.2-72.2 128.4-26.2 46.5-52.3 93-31.3 55.7-62.6 111.4-1.1 1.9-2 3.7-0.2 0.3-0.3 0.8c-0.1 0.2-0.1 0.5 0 0.8 0.2 0.9 0.8 1.7 1.2 2.6q5.2 9.2 10.4 18.4 34.5 61.4 69 122.7 31.2 55.5 62.4 111 30.6 54.5 61.3 108.9 11.7 20.8 23.4 41.6 0.8 1.5 1.7 2.9c0.4 0.6 1 0.8 1.7 1q0.6 0.1 1.3 0.1 2.4 0 4.9 0 19.3 0 38.6 0 203.5 0 406.9 0c2.1 0 4.2 0 6.2-0.1z"/>
	<path id="Layer" class="s0" d="m270.9 84q0-0.4 0-0.8 242.9 0 485.8 0c-0.7 0.4-1.5 0.7-2.4 0.8q-1 0-2 0-2.1 0-4.2 0-234.4 0-468.9 0-4.1 0-8.3 0z"/>
	<path id="Layer" class="s0" d="m743.3 925.7c0.2-0.3 0.6-0.4 1-0.3-0.2 0.4-0.6 0.5-1 0.3z"/>
	<path id="Layer" class="s0" d="m447.6 564c-0.1-0.5-0.2-1-0.3-1.6q0-1.9 0-3.7 0-202.4 0-404.8c0-1.7 0.1-3.3 0.1-5q0.8 0 1.5 0c1 0.5 1.7 1.4 2.5 2.1q21 20.4 42 40.8 39.4 38.1 78.8 76.2 1.1 1.2 2.3 2.4c0.5 0.5 0.7 1.1 0.8 1.8q0 0.7 0 1.3 0 1.4 0 2.9 0 116.2 0 232.5c0 1.5 0.1 3-0.2 4.5 0 0.3-0.2 0.6-0.4 0.7q-0.9 0.6-1.8 1-4.8 1.9-9.7 3.8-55.5 22-111 44.1c-0.9 0.3-1.8 0.7-2.7 1-0.4 0.1-0.8 0.2-1.2 0.2q-0.3-0.2-0.7-0.2z"/>
	<path id="Layer" class="s0" d="m615.5 812.1c0-0.5-0.1-1.1-0.1-1.6q-0.1-1.7-0.1-3.4 0-85.3 0-170.6c0-1.5-0.1-3 0.2-4.5 0-0.3 0.2-0.6 0.4-0.7q0.9-0.5 1.9-0.9 8.3-3.3 16.6-6.6 51.2-20.4 102.5-40.7 2.1-0.9 4.3-1.7c0.4-0.1 0.8-0.1 1.2-0.1 0.3 0 0.5 0.2 0.6 0.4q0.2 0.4 0.2 0.8 0.1 2.1 0.1 4.2 0 110 0 220c0 1.5-0.1 3-0.1 4.6 0 0.4-0.3 0.7-0.6 1-1.8-0.3-3.6-0.1-5.4-0.1q-57.5 0-115.1 0-3.3 0-6.6-0.1z"/>
	<path id="Layer" class="s0" d="m294.5 879.8c-0.1-0.4-0.2-0.8-0.2-1.2q-0.1-1.7-0.1-3.3 0-17.3 0-34.6c0-1.4-0.1-2.8 0.3-4.1q0.4-0.4 0.9-0.7c0.6 0 1.2-0.1 1.8-0.1q1.7 0 3.5 0 218.6 0 437.2 0c1.8 0 3.5 0 5.3 0.1 0.5 0 1.1 0.6 1.1 1 0 0.3 0.1 0.6 0.1 0.9q0 0.8 0 1.6 0.1 18.7 0 37.4c0 0.7 0 1.4 0 2 0 0.5-0.3 0.8-0.6 1.1-2-0.3-4.1-0.2-6.1-0.2q-219.2 0-438.4 0-2.4 0-4.8 0.1z"/>
	<path id="Layer" class="s0" d="m574.3 812.2c-1.5 0-3.1 0.1-4.6 0.1q-32.4 0-64.7 0-26.2 0-52.3 0c-1.4 0-2.8-0.1-4.2-0.1-0.5 0-1-0.6-1.1-1.1 0-0.4-0.1-0.8-0.1-1.2q0-1.3 0-2.5 0-54.6 0-109.2c0-1.2 0.1-2.5 0.1-3.7 0-0.5 0.3-0.8 0.7-1q0.7-0.4 1.5-0.7 10.4-4.2 20.8-8.3 49.9-19.8 99.8-39.7c1.3-0.5 2.6-0.9 3.9-1.4 0.4-0.1 0.9 0.2 1 0.5 0 0.4 0.1 0.8 0.1 1.2q0.1 1.7 0.1 3.4 0 79 0 158.1c0 1.1 0 2.2-0.1 3.3 0 0.6-0.1 1.1-0.1 1.7-0.4 0.1-0.7 0.3-0.8 0.6z"/>
	<path id="Layer" class="s0" d="m616.4 296.3q1.4 1.5 2.9 2.9 53.8 52.1 107.6 104.3 6.9 6.6 13.8 13.3 1 1 2 2.1c0.3 0.3 0.4 0.7 0.5 1.1q0 0.6 0.1 1.2 0 14.1 0 28.3-0.1 0.6-0.1 1.2c0 0.8-0.5 1.3-1.2 1.6-0.8 0.4-1.7 0.7-2.6 1.1q-10.5 4.1-20.9 8.2-48.7 19.4-97.5 38.7-2.1 0.9-4.3 1.7c-0.7 0.2-1.3-0.2-1.3-1.1q0-0.8 0-1.6 0-1.7 0-3.3 0-96.8 0-193.5c0-2.1 0-4.2 0-6.2q0.5 0 1 0z"/>
	<path id="Layer" class="s0" d="m743.1 527.4c0 0.7 0.1 1.4 0.1 2q0 12.9 0 25.8c0 0.7 0 1.3-0.1 2 0 0.5-0.4 0.8-0.7 1q-0.7 0.4-1.5 0.7-9.8 3.9-19.6 7.8-47.2 18.7-94.4 37.5-4.3 1.6-8.5 3.3c-0.7 0.3-1.3 0.5-2 0.7-0.3 0.1-0.9-0.3-0.9-0.6-0.1-0.4-0.2-0.8-0.2-1.2q0-13.5 0-27c0-0.3 0-0.5 0-0.8q0-1.4 1.3-2 1.3-0.5 2.6-1.1 10.3-4 20.5-8.1 49.1-19.5 98.2-39c1.4-0.5 2.9-1 4.3-1.5q0.4 0.2 0.9 0.5z"/>
	<path id="Layer" class="s0" d="m447.6 670.3q-0.3-0.8-0.3-1.6 0-2.5 0-5 0-10.8 0-21.5c0-0.9 0-1.7 0.3-2.5q0.4-0.1 0.5-0.5c1.4-0.6 2.8-1.2 4.2-1.8q43.1-17.1 86.3-34.2 16.2-6.5 32.4-12.9 1.5-0.6 3.1-1.1c0.2-0.1 0.6 0 0.8 0.1 0.2 0.2 0.2 0.5 0.3 0.8q0.1 0.6 0.1 1.2 0 13.3 0 26.6c0 0.5-0.1 1.1-0.2 1.6 0 0.4-0.2 0.8-0.6 1-0.5 0.2-1 0.5-1.5 0.7q-1.2 0.5-2.3 0.9-59.2 23.5-118.3 46.9c-1.1 0.4-2.1 0.9-3.1 1.2-0.4 0.2-0.8 0.2-1.2 0.2q-0.3-0.2-0.5-0.1z"/>
	<path id="Layer" class="s0" d="m615.5 553.9c-0.1-0.6-0.2-1.3-0.2-2q0-12.1 0-24.1 0-1 0.2-2c0.1-0.3 0.3-0.6 0.5-0.7q1.3-0.7 2.6-1.2 13.7-5.4 27.4-10.8 46.6-18.6 93.2-37.1c1-0.4 2-0.9 3.1-1 0.2 0 0.5 0.2 0.7 0.4 0.1 0 0.1 0.2 0.1 0.4 0.1 0.4 0.1 0.8 0.1 1.2q0 12.2 0 24.5c0 0.5 0 1.1-0.1 1.6-0.1 0.3-0.2 0.5-0.5 0.7-0.8 0.5-1.7 0.8-2.6 1.2q-15.4 6.1-30.8 12.2-45.1 17.9-90.1 35.8-1.4 0.5-2.7 1.1-0.5-0.1-0.9-0.2z"/>
	<path id="Layer" class="s0" d="m575.2 537.4q0.1 1.2 0.1 2.4 0 11.2 0 22.4 0 1.5-0.1 2.9c-0.1 0.6-0.4 1-1 1.3q-1.3 0.6-2.7 1.1-8 3.2-16.1 6.4-51.2 20.4-102.5 40.7c-1 0.4-2 0.9-3.1 1q-1.2 0-2.4 0c0-0.9-0.1-1.7-0.1-2.5q0-11.2 0-22.4c0-0.8 0.1-1.6 0.1-2.5 0.1-0.4 0.4-0.7 0.8-0.9q0.9-0.5 1.8-0.9 14.5-5.7 28.9-11.4 46-18.3 91.9-36.5 1.8-0.7 3.5-1.5 0.4 0.2 0.9 0.4z"/>
	<path id="Layer" class="s0" d="m615.5 812.1q3.3 0 6.6 0 57.6 0 115.1 0c1.8 0 3.6-0.1 5.4 0.2-0.5 0.3-1 0.5-1.5 0.6q-0.9 0-1.7 0.1-1.7 0-3.3 0-57.1 0-114.2 0-2.2 0-4.5-0.1c-0.7-0.1-1.4-0.3-1.9-0.8z"/>
	<path id="Layer" class="s0" d="m447.4 615.5q1.2 0.1 2.4 0.1c-0.4 0.5-0.8 0.7-1.4 0.8-0.5 0.1-0.9-0.2-1-0.9z"/>
	<path id="Layer" class="s0" d="m448.9 148.9q-0.7 0-1.5 0c0-0.4 0.1-0.7 0.4-0.9 0.2 0 0.5 0.2 0.7 0.3 0.1 0 0.2 0.1 0.3 0.2q0.1 0.2 0.1 0.4z"/>
	<path id="Layer" class="s0" d="m615.5 553.9q0.4 0.1 0.9 0.2c-0.5 0.4-0.6 0.4-0.9-0.2z"/>
	<path id="Layer" class="s0" d="m448.1 639.2q-0.1 0.4-0.5 0.5 0-0.5 0.5-0.5z"/>
	<path id="Layer" class="s0" d="m447.6 670.3q0.3-0.1 0.5 0.1c-0.2 0.3-0.4 0.4-0.5-0.1z"/>
	<path id="Layer" class="s0" d="m293.3 620.6c-0.1-0.6-0.2-1.1-0.3-1.6 0-1.3 0-2.5 0-3.8q0-57.7 0-115.4c0-1.4 0-2.8 0-4.2 0-1 0.4-1.8 1.1-2.5 0.6-0.6 1.2-1.2 1.8-1.8q53.4-54 106.8-108 1.6-1.7 3.2-3.2c0.2-0.2 0.5-0.3 0.8-0.2 0.2 0 0.5 0.2 0.6 0.4 0.1 0.2 0.2 0.5 0.2 0.8q0 2.1 0 4.1 0 92.2 0 184.4 0 2.3-0.1 4.5c0 0.6-0.2 1.1-0.8 1.4q-1.3 0.5-2.6 1.1-5.9 2.4-11.8 4.7-48.1 19.3-96.1 38.6-0.9 0.4-1.9 0.7-0.5 0-0.9 0z"/>
	<path id="Layer" class="s0" d="m293.3 810.7c-0.1-0.4-0.2-0.8-0.2-1.2q-0.1-1.9-0.1-3.7 0-25.3 0-50.6c0-1.4 0-2.8 0.1-4.2 0-0.7 0.5-1.3 1.1-1.6q0.6-0.2 1.2-0.4 3.8-1.6 7.6-3.1 49.5-19.9 99-39.8c1.4-0.5 2.8-1 4.2-1.6 0.5-0.1 1.2 0.3 1.2 0.8q0.1 0.6 0.1 1.2 0 1.3 0 2.5 0 48.8 0 97.5c0 1.4 0.1 2.8-0.1 4.2q-3.3 0-6.6 0-50.9 0-101.8 0-2.8 0-5.7 0z"/>
	<path id="Layer" class="s0" d="m407.4 650.3c0.1 1 0.1 1.9 0.1 2.9q0 12.2 0 24.5c0 0.9 0 1.9-0.1 2.9 0 0.4-0.3 0.7-0.7 0.9q-1.3 0.7-2.6 1.2-9.3 3.8-18.7 7.5-43 17.3-86.1 34.6-2.5 1-5 1.9c-0.2 0-0.6 0-0.8-0.1-0.2-0.2-0.3-0.5-0.4-0.7 0-0.3-0.1-0.6-0.1-0.8q0-1.1 0-2.1 0-11.8 0-23.7 0-1.4 0.2-2.9c0-0.4 0.2-0.8 0.6-0.9 1.2-0.6 2.5-1.2 3.8-1.7q20.9-8.4 41.9-16.8 32-12.8 64-25.7 1.5-0.6 3-1.3 0.5 0.1 0.9 0.3z"/>
	<path id="Layer" class="s0" d="m293 658.1q0-5.4 0-10.8 0-1.2 0.1-2.5c0-0.6 0.3-1.1 0.8-1.3q1.5-0.7 3-1.3 8.8-3.5 17.5-7 44.6-17.9 89.1-35.8 1.4-0.5 2.7-1c0.6-0.2 1.2 0.1 1.2 0.7 0 0.4 0.1 0.8 0.1 1.2q0 12.2 0 24.5c0 0.5-0.1 1.1-0.1 1.6q-0.1 0.5-0.5 0.7c-0.4 0.3-0.9 0.6-1.4 0.8q-6.5 2.6-12.9 5.2-47.1 18.9-94.1 37.7c-1.5 0.6-2.9 1.4-4.6 1.7-0.3 0.1-0.5-0.1-0.6-0.4-0.1-0.2-0.2-0.5-0.2-0.7q-0.1-1.5-0.1-2.9 0-5.2 0-10.4z"/>
	<path id="Layer" class="s0" d="m293.3 810.7q2.8 0 5.7 0 50.9 0 101.8 0 3.3 0 6.5 0c-0.2 0.3-0.4 0.6-0.9 0.7-0.4 0-0.8 0.1-1.2 0.1q-1.6 0-3.3 0-51.6 0-103.2 0c-1.5 0-3 0.1-4.5-0.1-0.4 0-0.7-0.3-0.9-0.7z"/>
	<path id="Layer" class="s0" d="m407.4 650.3q-0.4-0.1-0.9-0.3c0.5-0.4 0.7-0.3 1 0.3z"/>
	<path id="Layer" class="s0" d="m293.3 620.6q0.4 0 0.9 0.1c-0.1 0.1-0.1 0.2-0.2 0.2-0.3 0.2-0.5 0.2-0.7-0.3z"/>
	<path id="Layer" class="s0" d="m447.6 564q0.4 0 0.7 0.3c-0.1 0-0.1 0.2-0.2 0.2q-0.5 0.3-0.6-0.5z"/>
	<path id="Layer" class="s0" d="m564 811.3c0.2-0.3 0.5-0.5 0.8-0.6-0.1 0.6-0.1 0.6-0.8 0.6z"/>
	<path id="Layer" class="s0" d="m564.9 536.5q-0.4-0.2-0.9-0.4c0.6-0.3 0.7-0.3 0.9 0.4z"/>
	<path id="Layer" class="s0" d="m294.2 835.8q-0.5 0.3-0.9 0.6c0.1-0.6 0.1-0.6 0.9-0.6z"/>
	<path id="Layer" class="s0" d="m743.1 527.4q-0.4-0.3-0.9-0.6c0.1 0 0.2-0.1 0.4-0.1 0.4-0.1 0.6 0.1 0.5 0.7z"/>
	<path id="Layer" class="s0" d="m592.3 296.5q-0.5 0-0.9 0c0.3-0.6 0.5-0.6 0.9 0z"/>
	<path id="Layer" class="s0" d="m987.5 496.7h3736.1v38.3h-3736.1z"/>
	<path id="Layer" class="s0" d="m1188.9 737.8l18.2-59.8h27.3l-29.8 83.8h-31.6l-29.7-83.8h27.4z"/>
	<path id="Layer" fill-rule="evenodd" class="s0" d="m1338.6 726h-58q0.5 7.9 5 12 4.4 4.1 10.9 4.1 9.6 0 13.3-8.1h27.3q-2.1 8.2-7.6 14.8-5.5 6.6-13.7 10.4-8.3 3.7-18.5 3.7-12.2 0-21.9-5.2-9.6-5.3-15-15-5.4-9.8-5.4-22.8 0-13.1 5.4-22.8 5.3-9.8 14.9-15 9.6-5.3 22-5.3c8.3 0 15.3 1.7 21.6 5.1q9.5 5.1 14.8 14.6 5.4 9.4 5.4 22 0 3.6-0.5 7.5zm-25.8-14.2q0-6.6-4.5-10.5-4.5-3.9-11.2-3.9c-4.5 0-8 1.2-10.9 3.7q-4.4 3.8-5.5 10.7z"/>
	<path id="Layer" class="s0" d="m1404.5 681.1q6.7-4 15-4v27.2h-7.1q-9.6 0-14.4 4.1-4.8 4.1-4.8 14.5v38.8h-25.7v-83.7h25.7v14q4.5-6.9 11.3-10.9z"/>
	<path id="Layer" fill-rule="evenodd" class="s0" d="m1494.1 680.5q6.6 3.5 10.3 9.4l-0.1-11.8h25.7v83.5q0 11.5-4.6 20.9-4.6 9.4-13.9 14.9-9.4 5.6-23.4 5.6-18.6 0-30.1-8.8-11.6-8.8-13.2-23.8h25.3q1.2 4.8 5.7 7.6 4.5 2.8 11.1 2.8 8 0 12.7-4.6 4.7-4.6 4.7-14.6v-11.9q-3.7 5.9-10.3 9.6-6.6 3.7-15.5 3.6-10.3 0.1-18.7-5.3-8.4-5.3-13.3-15.1-4.9-9.9-4.9-22.8 0-12.9 4.9-22.6 4.9-9.8 13.3-15 8.4-5.3 18.7-5.3 8.9 0 15.6 3.7zm4.9 24.3q-5.3-5.6-13-5.6-7.6 0-12.9 5.5-5.4 5.4-5.4 15.1 0 9.5 5.4 15.2 5.3 5.6 12.9 5.6 7.7 0 13-5.6 5.3-5.5 5.3-15.1 0-9.6-5.3-15.1z"/>
	<path id="Layer" class="s0" d="m1589.3 650.8v111h-25.7v-111z"/>
	<path id="Layer" fill-rule="evenodd" class="s0" d="m1701.3 726h-58.1q0.6 7.9 5.1 12 4.4 4.1 10.8 4.1 9.6 0 13.4-8.1h27.3q-2.1 8.2-7.6 14.8-5.5 6.6-13.7 10.4-8.3 3.7-18.5 3.7-12.3 0-21.9-5.2-9.6-5.3-15-15-5.4-9.8-5.4-22.8 0-13.1 5.4-22.8 5.3-9.8 14.9-15 9.6-5.3 22-5.3c8.3 0 15.3 1.7 21.6 5.1q9.5 5.1 14.8 14.6 5.3 9.4 5.3 22 0 3.6-0.4 7.5zm-25.8-14.2q0-6.6-4.5-10.5-4.5-3.9-11.3-3.9c-4.5 0-7.9 1.2-10.8 3.7q-4.5 3.8-5.5 10.7z"/>
	<path id="Layer" class="s0" d="m1732.1 665.4q-4.3-4-4.3-9.9c0-3.9 1.5-7.3 4.3-9.9q4.3-4 11-4c4.5 0 8.1 1.3 10.9 4q4.3 3.9 4.3 9.9c0 4-1.4 7.2-4.3 9.9q-4.2 3.9-10.9 3.9c-4.4 0-8.1-1.3-11-3.9zm23.8 12.6v83.7h-25.7v-83.7z"/>
	<path id="Layer" class="s0" d="m1789.7 697.1q5.3-9.7 14.9-15 9.5-5.2 21.8-5.3 15.7 0.1 26.3 8.3 10.6 8.3 13.9 23.3l-27.3-0.1q-3.4-9.5-13.3-9.6-7.1 0.1-11.3 5.5-4.2 5.5-4.2 15.7 0 10.2 4.2 15.7 4.2 5.4 11.3 5.4 9.9 0 13.3-9.6h27.3q-3.3 14.7-13.9 23.1-10.7 8.4-26.3 8.4-12.3 0-21.8-5.2-9.5-5.3-14.9-15-5.3-9.8-5.3-22.8 0-13.1 5.3-22.8z"/>
	<path id="Layer" class="s0" d="m1969.8 686.7q8.7 9.5 8.7 26.1v48.9h-25.5v-45.4q0-8.4-4.4-13.1-4.3-4.6-11.7-4.6-7.3 0-11.7 4.6-4.3 4.7-4.3 13.1v45.4h-25.7v-111h25.7v38.6q3.9-5.6 10.6-8.9 6.8-3.3 15.2-3.3 14.4 0 23.1 9.6z"/>
	<path id="Layer" fill-rule="evenodd" class="s0" d="m2089.8 726h-58.1q0.6 7.9 5.1 12 4.4 4.1 10.8 4.1 9.6 0 13.4-8.1h27.3q-2.1 8.2-7.6 14.8-5.5 6.6-13.7 10.4-8.3 3.7-18.5 3.7-12.3 0-21.9-5.2-9.6-5.3-15-15-5.4-9.8-5.4-22.8 0-13.1 5.4-22.8 5.3-9.8 14.9-15 9.6-5.3 22-5.3c8.3 0 15.3 1.7 21.6 5.1q9.5 5.1 14.8 14.6 5.3 9.4 5.4 22 0 3.6-0.5 7.5zm-25.8-14.2q0-6.6-4.5-10.5-4.5-3.9-11.2-3.9c-4.5 0-8 1.2-10.9 3.7q-4.5 3.8-5.5 10.7z"/>
	<path id="Layer" class="s0" d="m2193.2 686.7q8.8 9.5 8.8 26.1v48.9h-25.5v-45.4q0-8.4-4.4-13.1-4.3-4.6-11.7-4.6-7.3 0-11.7 4.6-4.3 4.7-4.3 13.1v45.4h-25.7v-83.7h25.7v11.1q3.9-5.5 10.5-8.7 6.6-3.3 14.8-3.3 14.7 0 23.5 9.6z"/>
	<path id="Layer" class="s0" d="m2284.1 724.5q-4.3-4-4.3-9.9c0-3.9 1.5-7.3 4.3-10q4.3-4.1 11-4c4.5 0 8.1 1.3 10.9 4q4.3 4 4.3 10c0 4-1.4 7.2-4.3 9.9q-4.3 3.9-10.9 4c-4.4 0-8.1-1.4-11-4z"/>
	<path id="Layer" class="s0" d="m2390.2 665.4q-4.3-4-4.3-9.9c0-3.9 1.4-7.3 4.3-9.9q4.2-4 11-4c4.5 0 8 1.3 10.9 4q4.2 3.9 4.2 9.9c0 4-1.4 7.2-4.2 9.9q-4.3 3.9-10.9 3.9c-4.4 0-8.2-1.3-11-3.9zm23.7 12.6v83.7h-25.6v-83.7z"/>
	<path id="Layer" class="s0" d="m2522 686.7q8.8 9.5 8.8 26.1v48.9h-25.5v-45.4q0-8.4-4.4-13.1-4.3-4.6-11.7-4.6-7.3 0-11.7 4.6-4.3 4.7-4.3 13.1v45.4h-25.7v-83.7h25.7v11.1q3.9-5.5 10.5-8.7 6.6-3.3 14.8-3.3 14.7 0 23.5 9.6z"/>
	<path id="Layer" class="s0" d="m2610.3 740v21.8l-13.1-0.1q-13.9 0.1-21.7-6.8-7.8-6.8-7.8-22.3v-33.2h-10.2v-21.3h10.2v-20.4h25.6v20.4h16.8v21.3h-16.8v33.6q0 3.7 1.8 5.4 1.8 1.6 6 1.6z"/>
	<path id="Layer" fill-rule="evenodd" class="s0" d="m2718 726h-58.1q0.6 7.9 5.1 12 4.4 4.1 10.8 4.1 9.6 0 13.4-8.1h27.3q-2.1 8.2-7.6 14.8-5.5 6.6-13.7 10.4-8.3 3.7-18.5 3.7-12.3 0-21.9-5.2-9.6-5.3-15-15-5.4-9.8-5.4-22.8 0-13.1 5.4-22.8 5.3-9.8 14.9-15 9.6-5.3 22-5.3c8.3 0 15.3 1.7 21.6 5.1q9.5 5.1 14.8 14.6 5.3 9.4 5.4 22-0.1 3.6-0.5 7.5zm-25.8-14.2q0-6.6-4.5-10.5-4.5-3.9-11.2-3.9c-4.5 0-8 1.2-10.9 3.7q-4.5 3.8-5.5 10.7z"/>
	<path id="Layer" fill-rule="evenodd" class="s0" d="m2794.3 680.5q6.6 3.5 10.2 9.4v-11.8h25.7v83.5q0 11.5-4.6 20.9-4.6 9.4-13.9 14.9-9.4 5.6-23.4 5.6-18.6 0-30.1-8.8-11.6-8.8-13.2-23.8h25.3q1.2 4.8 5.7 7.6 4.5 2.8 11.1 2.8 8 0 12.7-4.6 4.7-4.6 4.7-14.6v-11.9q-3.7 5.9-10.3 9.6-6.6 3.7-15.5 3.6-10.3 0.1-18.7-5.3-8.4-5.3-13.3-15.1-4.9-9.9-4.9-22.8 0-12.9 4.9-22.6 4.9-9.8 13.3-15 8.4-5.3 18.7-5.3 8.9 0 15.6 3.7zm4.9 24.3q-5.3-5.6-13-5.6-7.6 0-12.9 5.5-5.4 5.4-5.4 15.1 0 9.5 5.4 15.2 5.3 5.6 12.9 5.6 7.7 0 13-5.6 5.3-5.5 5.3-15.1 0-9.6-5.3-15.1z"/>
	<path id="Layer" class="s0" d="m2900.7 681.1q6.7-4 15-4v27.2h-7.1q-9.6 0-14.4 4.1-4.8 4.1-4.8 14.5v38.8h-25.6v-83.7h25.6v14q4.5-6.9 11.3-10.9z"/>
	<path id="Layer" class="s0" d="m2944.9 665.4q-4.3-4-4.3-9.9c0-3.9 1.4-7.3 4.3-9.9q4.2-4 11-4c4.5 0 8 1.3 10.9 4q4.2 3.9 4.2 9.9c0 4-1.4 7.2-4.2 9.9q-4.3 3.9-10.9 3.9c-4.4 0-8.2-1.3-11-3.9zm23.7 12.6v83.7h-25.6v-83.7z"/>
	<path id="Layer" fill-rule="evenodd" class="s0" d="m3080.7 726h-58.1q0.6 7.9 5 12 4.5 4.1 10.9 4.1 9.6 0 13.4-8.1h27.3q-2.1 8.2-7.6 14.8-5.5 6.6-13.7 10.4-8.3 3.7-18.5 3.7-12.3 0-21.9-5.2-9.6-5.3-15-15-5.4-9.8-5.4-22.8 0-13.1 5.4-22.8 5.3-9.8 14.9-15 9.6-5.3 22-5.3c8.3 0 15.3 1.7 21.6 5.1q9.5 5.1 14.8 14.6 5.3 9.4 5.3 22 0 3.6-0.4 7.5zm-25.8-14.2q0-6.6-4.5-10.5-4.5-3.9-11.3-3.9c-4.5 0-7.9 1.2-10.8 3.7q-4.5 3.8-5.5 10.7z"/>
	<path id="Layer" class="s0" d="m3146.5 681.1q6.8-4 15-4v27.2h-7q-9.6 0-14.4 4.1-4.8 4.1-4.8 14.5v38.8h-25.7v-83.7h25.7v14q4.5-6.9 11.2-10.9z"/>
	<path id="Layer" fill-rule="evenodd" class="s0" d="m3267.3 726h-58.1q0.6 7.9 5 12 4.5 4.1 10.9 4.1 9.6 0 13.4-8.1h27.3q-2.1 8.2-7.6 14.8-5.5 6.6-13.7 10.4-8.3 3.7-18.5 3.7-12.3 0-21.9-5.2-9.6-5.3-15-15-5.4-9.8-5.4-22.8 0-13.1 5.4-22.8 5.3-9.8 14.9-15 9.6-5.3 22-5.3c8.3 0 15.3 1.7 21.6 5.1q9.5 5.1 14.8 14.6 5.3 9.4 5.3 22 0 3.6-0.4 7.5zm-25.8-14.2q0-6.6-4.5-10.5-4.5-3.9-11.3-3.9c-4.5 0-7.9 1.2-10.8 3.7q-4.5 3.8-5.5 10.7z"/>
	<path id="Layer" class="s0" d="m3370.7 686.7q8.8 9.5 8.8 26.1v48.9h-25.5v-45.4q0-8.4-4.4-13.1-4.3-4.6-11.7-4.6-7.3 0-11.7 4.6-4.3 4.7-4.3 13.1v45.4h-25.7v-83.7h25.7v11.1q3.9-5.5 10.5-8.7 6.6-3.3 14.8-3.3 14.7 0 23.5 9.6z"/>
	<path id="Layer" class="s0" d="m3461.6 724.5q-4.3-4-4.3-9.9c0-3.9 1.5-7.3 4.3-10q4.3-4.1 11-4c4.5 0 8.1 1.3 10.9 4q4.3 4 4.3 10c0 4-1.4 7.2-4.3 9.9q-4.3 3.9-10.9 4c-4.4 0-8.1-1.4-11-4z"/>
	<path id="Layer" fill-rule="evenodd" class="s0" d="m3581.8 757.7q-9.9-5.2-15.5-15-5.6-9.8-5.6-22.8c0-8.7 1.9-16.2 5.7-22.7q5.7-9.8 15.6-15.1 9.9-5.3 22.2-5.3 12.3 0 22.2 5.3 9.9 5.2 15.6 15.1 5.7 9.8 5.7 22.7 0 12.9-5.8 22.7-5.8 9.8-15.8 15.1-9.9 5.3-22.2 5.3-12.3 0-22.2-5.3zm34.7-22.4q5.2-5.3 5.2-15.4 0-10.1-5.1-15.5-5-5.4-12.3-5.4c-4.9 0-9.2 1.8-12.5 5.4q-4.9 5.3-4.9 15.5c0 6.8 1.6 11.9 4.9 15.5q4.8 5.4 12.2 5.4 7.3 0 12.5-5.5z"/>
	<path id="Layer" fill-rule="evenodd" class="s0" d="m3712.3 680.5q6.6-3.6 15.5-3.6 10.3 0 18.7 5.2 8.4 5.3 13.3 15 4.9 9.8 4.9 22.6 0 13-4.9 22.8-4.9 9.8-13.3 15.1-8.4 5.3-18.7 5.4-8.7 0-15.4-3.6-6.7-3.6-10.4-9.3v51.6h-25.7v-123.6h25.7v11.8q3.7-5.8 10.3-9.4zm20.9 24.2q-5.3-5.5-13.1-5.5c-5.2 0-9.4 1.9-12.9 5.5q-5.4 5.6-5.4 15.2 0 9.6 5.4 15.1 5.3 5.6 12.9 5.6 7.7 0 13.1-5.6 5.4-5.6 5.4-15.2 0-9.6-5.4-15.1z"/>
	<path id="Layer" class="s0" d="m3839.8 740v21.8l-13-0.1q-14 0.1-21.8-6.8-7.8-6.8-7.8-22.3v-33.2h-10.2v-21.3h10.2v-20.4h25.7v20.4h16.8v21.3h-16.8v33.6q0 3.7 1.8 5.4 1.8 1.6 6 1.6z"/>
	<path id="Layer" class="s0" d="m3870.9 665.4q-4.2-4-4.2-9.9c0-3.9 1.4-7.3 4.2-9.9q4.3-4 11.1-4c4.5 0 8 1.3 10.9 4q4.2 3.9 4.2 9.9c0 4-1.4 7.2-4.2 9.9q-4.3 3.9-10.9 3.9c-4.4 0-8.2-1.3-11.1-3.9zm23.8 12.6v83.7h-25.6v-83.7z"/>
	<path id="Layer" class="s0" d="m4059.9 686.6q9.3 9.4 9.3 26.3v48.8h-25.5v-45.4q0-8.1-4.3-12.5-4.3-4.4-11.8-4.4-7.5 0-11.8 4.4-4.2 4.4-4.2 12.5v45.4h-25.5v-45.4q0-8.1-4.3-12.5-4.3-4.4-11.8-4.4-7.5 0-11.8 4.4-4.2 4.4-4.2 12.5v45.4h-25.7v-83.7h25.7v10.5q3.9-5.2 10.2-8.3 6.3-3.1 14.2-3.1 9.5 0 16.9 4.1 7.4 4 11.6 11.5 4.4-6.9 11.9-11.2 7.5-4.4 16.3-4.4 15.6 0 24.8 9.5z"/>
	<path id="Layer" class="s0" d="m4104.1 665.4q-4.3-4-4.3-9.9c0-3.9 1.4-7.3 4.2-9.9q4.3-4 11.1-4c4.5 0 8 1.3 10.9 4q4.2 3.9 4.2 9.9c0 4-1.4 7.2-4.2 9.9q-4.3 3.9-10.9 3.9c-4.4 0-8.2-1.3-11.1-3.9zm23.8 12.6v83.7h-25.6v-83.7z"/>
	<path id="Layer" fill-rule="evenodd" class="s0" d="m4239.9 726h-58.1q0.6 7.9 5 12 4.5 4.1 10.9 4.1 9.6 0 13.4-8.1h27.3q-2.1 8.2-7.6 14.8-5.5 6.6-13.7 10.4-8.3 3.7-18.5 3.7-12.3 0-21.9-5.2-9.6-5.3-15-15-5.4-9.8-5.4-22.8 0-13.1 5.4-22.8 5.3-9.8 14.9-15 9.6-5.3 22-5.3c8.3 0 15.3 1.7 21.6 5.1q9.5 5.1 14.8 14.6 5.3 9.4 5.3 22 0 3.6-0.4 7.5zm-25.8-14.2q0-6.6-4.5-10.5-4.5-3.9-11.3-3.9c-4.5 0-7.9 1.2-10.8 3.7q-4.5 3.8-5.5 10.7c0 0 32.1 0 32.1 0z"/>
	<path id="Layer" class="s0" d="m4305.7 681.1q6.8-4 15-4v27.2h-7q-9.6 0-14.4 4.1-4.8 4.1-4.8 14.5v38.8h-25.7v-83.7h25.7v14q4.5-6.9 11.2-10.9z"/>
	<path id="Layer" fill-rule="evenodd" class="s0" d="m4426.5 726h-58.1q0.6 7.9 5 12 4.5 4.1 10.9 4.1 9.6 0 13.4-8.1h27.3q-2.1 8.2-7.6 14.8-5.5 6.6-13.7 10.4-8.3 3.7-18.5 3.7-12.3 0-21.9-5.2-9.6-5.3-15-15-5.4-9.8-5.4-22.8 0-13.1 5.4-22.8 5.3-9.8 14.9-15 9.6-5.3 22-5.3c8.3 0 15.3 1.7 21.6 5.1q9.5 5.1 14.8 14.6 5.3 9.4 5.3 22 0 3.6-0.4 7.5zm-25.8-14.2q0-6.6-4.5-10.5-4.5-3.9-11.3-3.9c-4.5 0-7.9 1.2-10.8 3.7q-4.5 3.8-5.5 10.7c0 0 32.1 0 32.1 0z"/>
	<path id="Layer" class="s0" d="m4529.9 686.7q8.8 9.5 8.8 26.1v48.9h-25.5v-45.4q0-8.4-4.4-13.1-4.3-4.6-11.7-4.6-7.3 0-11.7 4.6-4.3 4.7-4.3 13.1v45.4h-25.7v-83.7h25.7v11.1q3.9-5.5 10.5-8.7 6.6-3.3 14.8-3.3 14.7 0 23.5 9.6z"/>
	<path id="Layer" class="s0" d="m1180.4 175.5v48h-65.1v197.7h-59.8v-197.7h-65.1v-48z"/>
	<path id="Layer" fill-rule="evenodd" class="s0" d="m1353.3 421.2l-51.1-92.7h-14.3v92.7h-59.9v-245.7h100.5q29 0 49.5 10.2 20.5 10.1 30.6 27.8 10.2 17.7 10.2 39.4 0 24.5-13.8 43.8-13.9 19.2-40.8 27.3l56.7 97.3h-67.6zm-65.4-135.1h37.1q16.4 0 24.6-8.1 8.3-8 8.3-22.7c0-9.8-2.8-16.7-8.3-22.1q-8.2-8-24.6-8h-37.1z"/>
	<path id="Layer" class="s0" d="m1533.6 175.5v245.7h-59.9v-245.7z"/>
	<path id="Layer" class="s0" d="m1635.1 414.9q-21.4-8.7-34.1-25.9-12.8-17.1-13.5-41.3h63.7q1.4 13.7 9.4 20.9 8.1 7.1 21 7.1c8.7 0 15.9-2 21-6.1q7.7-6.1 7.7-17 0-9-6.1-15-6.1-5.9-15-9.8-9-3.8-25.4-8.8-23.8-7.3-38.9-14.7-15-7.3-25.9-21.7-10.8-14.3-10.8-37.4 0-34.3 24.8-53.7 24.9-19.5 64.8-19.4c26.6 0 48.9 6.4 65.4 19.4q24.9 19.4 26.6 54.1h-64.7q-0.7-11.9-8.8-18.8-8-6.8-20.6-6.8-10.9 0-17.5 5.8-6.7 5.8-6.7 16.6 0 11.9 11.2 18.6 11.2 6.6 35 14.3 23.8 8.1 38.7 15.4 14.9 7.4 25.7 21.4 10.9 13.9 10.9 36c0 14.7-3.6 26.7-10.7 38.2q-10.7 17.1-31 27.3-20.3 10.1-47.9 10.1c-18.5 0-34.1-2.9-48.3-8.8z"/>
	<path id="Layer" class="s0" d="m1987.2 175.5v48h-100.1v51.8h74.9v46.5h-74.9v99.4h-59.9v-245.7z"/>
	<path id="Layer" class="s0" d="m2095 175.5v147q0 22.1 10.8 34 10.9 11.9 31.9 11.9 21 0 32.2-11.9 11.2-11.9 11.2-34v-147h59.8v146.7q0 32.9-14 55.6-14 22.8-37.6 34.3-23.6 11.6-52.7 11.6-29 0-51.9-11.4-23-11.4-36.3-34.3-13.3-22.9-13.3-55.8v-146.7h59.9z"/>
	<path id="Layer" class="s0" d="m2341 414.9q-21.3-8.7-34.1-25.9-12.8-17.1-13.5-41.3h63.7q1.4 13.7 9.5 20.9 8 7.1 21 7.1c8.6 0 15.8-2 21-6.1q7.7-6.1 7.7-17 0-9-6.1-15-6.2-5.9-15.1-9.8-8.9-3.8-25.4-8.8-23.8-7.3-38.8-14.7-15.1-7.3-25.9-21.7-10.9-14.3-10.9-37.4 0-34.3 24.9-53.7 24.8-19.5 64.7-19.4c26.6 0 48.9 6.4 65.5 19.4q24.8 19.4 26.6 54.1h-64.8q-0.7-11.9-8.7-18.8-8.1-6.8-20.7-6.8-10.8 0-17.5 5.8-6.6 5.8-6.6 16.6 0 11.9 11.2 18.6 11.2 6.6 35 14.3 23.8 8.1 38.6 15.4 14.9 7.4 25.8 21.4 10.8 13.9 10.8 36c0 14.7-3.5 26.7-10.7 38.2q-10.6 17.1-30.9 27.3-20.3 10.1-48 10.1c-18.4 0-34.1-2.9-48.3-8.8z"/>
	<path id="Layer" fill-rule="evenodd" class="s0" d="m2686.1 377.8h-91.7l-14.7 43.4h-62.6l88.9-245.7h69.3l88.9 245.7h-63.4zm-15.4-46.2l-30.4-89.9-30.1 89.9z"/>
	<path id="Layer" class="s0" d="m2905.9 233.1q15.8-28.5 43.9-44.4 28.2-16 63.9-16 43.8 0 74.9 23.1 31.2 23.1 41.7 63h-65.8q-7.4-15.4-20.9-23.4-13.4-8.1-30.6-8.1-27.6 0-44.8 19.3-17.1 19.3-17.1 51.4 0 32.2 17.1 51.5 17.2 19.2 44.8 19.2 17.2 0 30.6-8 13.5-8.1 20.9-23.5h65.8q-10.5 39.9-41.7 62.9-31.1 22.9-74.9 22.9-35.7 0-63.9-15.9-28.1-16-43.9-44.3-15.7-28.4-15.7-64.8 0-36.4 15.7-64.9z"/>
	<path id="Layer" fill-rule="evenodd" class="s0" d="m3237.2 407.6q-28.9-16.1-45.9-45-16.9-28.9-16.9-64.9 0-36.1 16.9-64.8 17-28.7 45.9-44.8 28.9-16 63.5-16.1 34.7 0.1 63.5 16.1 28.9 16.1 45.5 44.8 16.7 28.7 16.7 64.8 0 36-16.8 64.9-16.8 28.9-45.5 45-28.7 16.1-63.4 16.1-34.6 0-63.5-16.1zm110.6-58.1q17.7-19.6 17.7-51.8c0-21.5-5.9-39-17.7-52q-17.7-19.4-47.1-19.4c-19.6 0-35.6 6.4-47.4 19.2q-17.7 19.3-17.7 52.2c0 21.9 5.9 39 17.7 52q17.7 19.4 47.4 19.4c19.8 0 35.3-6.5 47.1-19.6z"/>
	<path id="Layer" class="s0" d="m3696.9 421.2h-59.8l-100.1-151.5v151.5h-59.9v-245.7h59.9l100.1 152.3v-152.3h59.8z"/>
	<path id="Layer" class="s0" d="m3977.6 421.2h-59.8l-100.1-151.5v151.5h-59.9v-245.7h59.9l100.1 152.3v-152.3h59.8z"/>
	<path id="Layer" class="s0" d="m4098.4 223.5v49.7h80.1v46.2h-80.1v53.9h90.6v47.9h-150.5v-245.7h150.5v48z"/>
	<path id="Layer" class="s0" d="m4250.9 233.1q15.8-28.5 44-44.4 28.1-16 63.9-16 43.7 0 74.8 23.1 31.2 23.1 41.7 63h-65.8q-7.4-15.4-20.8-23.4-13.5-8.1-30.6-8.1-27.7 0-44.8 19.3-17.2 19.3-17.2 51.4 0 32.2 17.2 51.5 17.1 19.2 44.8 19.2 17.1 0 30.6-8 13.4-8.1 20.8-23.5h65.8q-10.5 39.9-41.6 62.9-31.2 22.9-74.9 22.9-35.7 0-63.9-15.9-28.2-16-43.9-44.3-15.8-28.4-15.8-64.8 0-36.4 15.8-64.9z"/>
	<path id="Layer" class="s0" d="m4706.3 175.5v48h-65.1v197.7h-59.9v-197.7h-65.1v-48z"/>
</svg>