<svg version="1.2" xmlns="http://www.w3.org/2000/svg" viewBox="0 0 4696 866" width="4696" height="866">
	<title>Logo_Trisfusa_5-svg</title>
	<style>
		.s0 { fill: #1e7766 } 
		.s1 { fill: #cd3333 } 
		.s2 { fill: #1d1d1b } 
		.s3 { fill: #333333 } 
	</style>
	<path id="Layer" class="s0" d="m959.4 413.5h3736v38.4h-3736z"/>
	<path id="Layer" fill-rule="evenodd" class="s1" d="m730.2 865.4h-488.3c0.3-0.4 0.4-0.8 0.2-1.2q-0.3-0.7-0.7-1.5-1.7-3-3.5-6.1-23.4-41.6-46.7-83.2-21.6-38.3-43.2-76.6-19.3-34.3-38.6-68.7-25.5-45.3-51-90.7-26.9-47.7-53.7-95.4-2.3-4.2-4.6-8.4-0.1-0.5-0.1-1.1c1-1.8 2-3.6 3-5.4q8.2-14.7 16.5-29.3 21.4-38.2 42.9-76.3 29.2-51.9 58.3-103.8 23.9-42.4 47.8-84.9 29-51.6 57.9-103.1 8.2-14.4 16.4-28.9 4.1 0 8.3 0 234.4 0 468.9 0 2 0 4.1 0 1.1 0 2.1 0c0.8-0.1 1.6-0.4 2.3-0.8h1.7c-0.2 0.4-0.3 0.8-0.2 1.2q0.7 1.3 1.4 2.6 8.6 15.3 17.2 30.7 36.5 64.9 73 129.8 38.4 68.1 76.7 136.3 32.7 58.2 65.5 116.4 2.4 4.3 4.8 8.7c0.7 1.1 1.3 2.1 1.7 3.3 0.1 0.2 0.4 0.3 0.7 0.4v6.6c-0.2 0.2-0.5 0.3-0.6 0.6-0.4 1.1-0.9 2.2-1.5 3.3q-3.5 6.2-7 12.3-25.3 45-50.6 90.1-27 47.9-53.9 95.8-25.2 44.8-50.4 89.7-38.1 67.6-76.1 135.3-0.3 0.5-0.6 1-0.3 0.6-0.1 1.3zm-15.1-22.9c0.5 0.2 0.8 0.1 1.1-0.3 0.3-0.3 0.6-0.5 0.9-0.8 0.6-1 1.1-1.9 1.6-2.9q6.9-12.1 13.7-24.2 27.1-48.1 54.1-96.3 21.5-38.1 42.9-76.3 25.1-44.5 50.1-89 22-39 44-78.1 10.9-19.5 21.9-39.1c0.2-0.3 0.4-0.7 0.6-1.1 0.5-0.9 0.5-1.8 0.1-2.8q-0.5-0.9-1-1.8-15-26.6-29.9-53.2-28.8-51.2-57.6-102.3-24.9-44.3-49.9-88.7-31.3-55.7-62.6-111.4-13.1-23.3-26.3-46.6-1-1.8-2.1-3.6c-0.3-0.5-0.8-0.8-1.4-0.8q-2.7-0.1-5.4-0.1-63.3 0-126.6 0-30.3 0-60.6 0-128.1 0-256.1 0-4 0-7.9 0-0.9 0-1.7 0.2c-0.2 0-0.5 0.1-0.7 0.3-0.3 0.3-0.7 0.5-0.9 0.9q-1 1.6-1.9 3.2-19 33.8-38 67.6-36.2 64.2-72.3 128.4-26.1 46.5-52.2 93-31.4 55.7-62.7 111.4-1 1.9-2 3.7-0.2 0.3-0.3 0.8c0 0.2 0 0.5 0 0.8 0.3 0.9 0.8 1.7 1.3 2.6q5.2 9.2 10.4 18.4 34.4 61.4 68.9 122.7 31.3 55.5 62.5 111 30.6 54.5 61.2 108.9 11.7 20.8 23.4 41.6 0.8 1.5 1.7 2.9c0.4 0.6 1.1 0.8 1.8 1q0.6 0.1 1.2 0.1 2.5 0 5 0 19.3 0 38.6 0 203.4 0 406.9 0c2 0 4.1 0 6.2-0.1z"/>
	<path id="Layer" class="s1" d="m242.8 0.8q0-0.4-0.1-0.8 242.9 0 485.8 0c-0.7 0.4-1.5 0.7-2.3 0.8q-1 0-2.1 0-2 0-4.1 0-234.5 0-468.9 0-4.2 0-8.3 0z"/>
	<path id="Layer" class="s1" d="m715.1 842.5c0.3-0.3 0.7-0.4 1.1-0.3-0.3 0.4-0.6 0.5-1.1 0.3z"/>
	<path id="Layer" class="s1" d="m419.4 480.9c-0.1-0.6-0.2-1.1-0.2-1.7q0-1.9 0-3.7 0-202.4 0-404.8c0-1.7 0.1-3.3 0.1-5q0.7 0 1.5 0c1 0.5 1.7 1.4 2.5 2.2q21 20.3 42 40.7 39.4 38.1 78.7 76.2 1.2 1.2 2.4 2.4c0.5 0.5 0.7 1.1 0.7 1.8q0 0.7 0 1.3 0 1.4 0 2.9 0 116.2 0 232.5c0 1.5 0.2 3-0.1 4.5-0.1 0.3-0.2 0.6-0.4 0.7q-0.9 0.6-1.9 1-4.8 1.9-9.6 3.8-55.5 22-111 44.1c-0.9 0.3-1.8 0.7-2.7 1-0.4 0.2-0.8 0.2-1.3 0.2q-0.3-0.2-0.7-0.2z"/>
	<path id="Layer" class="s1" d="m587.4 728.9c-0.1-0.5-0.2-1.1-0.2-1.6q0-1.7 0-3.4 0-85.3 0-170.6c0-1.5-0.2-3 0.2-4.5 0-0.3 0.2-0.6 0.4-0.7q0.9-0.5 1.8-0.9 8.3-3.3 16.6-6.6 51.3-20.4 102.6-40.7 2.1-0.9 4.2-1.7c0.4-0.1 0.9-0.1 1.3-0.1 0.2 0 0.5 0.2 0.6 0.4q0.1 0.4 0.2 0.8 0 2.1 0 4.2 0 110 0 220c0 1.5 0 3-0.1 4.6 0 0.4-0.2 0.7-0.5 1-1.8-0.3-3.6-0.1-5.4-0.1q-57.5 0-115.1 0-3.3 0-6.6-0.1z"/>
	<path id="Layer" class="s0" d="m266.4 796.6c-0.1-0.4-0.3-0.8-0.3-1.2q0-1.7 0-3.3 0-17.3 0-34.6c0-1.4-0.2-2.8 0.2-4.1q0.5-0.4 1-0.7c0.6 0 1.2-0.1 1.7-0.1q1.8 0 3.5 0 218.7 0 437.3 0c1.7 0 3.5 0 5.2 0.1 0.6 0 1.1 0.6 1.2 1 0 0.3 0.1 0.6 0.1 0.9q0 0.8 0 1.6 0 18.7 0 37.4c0 0.7 0 1.4-0.1 2 0 0.5-0.3 0.8-0.6 1.1-2-0.3-4-0.2-6.1-0.2q-219.1 0-438.3 0-2.4 0-4.8 0.1z"/>
	<path id="Layer" class="s1" d="m546.1 729c-1.5 0-3 0.1-4.5 0.1q-32.4 0-64.8 0-26.1 0-52.3 0c-1.3 0-2.7-0.1-4.1-0.1-0.5 0-1.1-0.6-1.1-1.1 0-0.4-0.1-0.8-0.1-1.2q0-1.3 0-2.5 0-54.6 0-109.2c0-1.2 0.1-2.5 0.1-3.7 0-0.5 0.3-0.8 0.6-1q0.7-0.4 1.5-0.7 10.4-4.2 20.8-8.3 49.9-19.8 99.9-39.7c1.3-0.5 2.6-0.9 3.9-1.4 0.3-0.1 0.9 0.2 0.9 0.5 0.1 0.4 0.2 0.8 0.2 1.2q0 1.7 0 3.4 0 79 0 158.1c0 1.1 0 2.2 0 3.3 0 0.6-0.1 1.1-0.2 1.7-0.3 0.1-0.6 0.3-0.8 0.6z"/>
	<path id="Layer" class="s1" d="m588.2 213.1q1.5 1.5 3 2.9 53.8 52.2 107.6 104.3 6.9 6.6 13.7 13.3 1 1 2 2.1c0.3 0.3 0.5 0.7 0.5 1.1q0.1 0.6 0.1 1.2 0 14.1 0 28.3 0 0.6 0 1.2c-0.1 0.8-0.6 1.3-1.2 1.6-0.9 0.4-1.8 0.7-2.7 1.1q-10.4 4.1-20.8 8.2-48.8 19.4-97.6 38.7-2.1 0.9-4.2 1.7c-0.8 0.2-1.3-0.2-1.3-1.1q-0.1-0.8-0.1-1.6 0-1.7 0-3.3 0-96.8 0-193.5c0-2.1 0.1-4.2 0.1-6.2q0.5 0 0.9 0z"/>
	<path id="Layer" class="s0" d="m715 444.2c0 0.7 0.1 1.4 0.1 2q0 12.9 0 25.8c0 0.7-0.1 1.3-0.1 2 0 0.5-0.4 0.8-0.7 1q-0.7 0.4-1.5 0.7-9.9 3.9-19.7 7.8-47.2 18.7-94.4 37.5-4.2 1.6-8.4 3.3c-0.7 0.3-1.4 0.5-2 0.7-0.4 0.1-0.9-0.3-1-0.6 0-0.4-0.1-0.8-0.1-1.2q0-13.5 0-27c0-0.3 0-0.5 0-0.8q0-1.4 1.2-2 1.4-0.5 2.7-1.1 10.2-4 20.4-8.1 49.2-19.5 98.3-39c1.4-0.5 2.8-1 4.2-1.5q0.5 0.2 0.9 0.5z"/>
	<path id="Layer" class="s0" d="m419.5 587.1q-0.3-0.8-0.3-1.6 0-2.5 0-5 0-10.8 0-21.6c0-0.8-0.1-1.6 0.3-2.4q0.4-0.1 0.5-0.5c1.4-0.6 2.7-1.2 4.2-1.8q43.1-17.1 86.3-34.2 16.1-6.5 32.3-12.9 1.6-0.6 3.1-1.1c0.3-0.1 0.6 0 0.8 0.1 0.2 0.2 0.3 0.5 0.3 0.8q0.1 0.6 0.1 1.2 0 13.3 0 26.6c0 0.5 0 1.1-0.1 1.6-0.1 0.4-0.2 0.8-0.7 1-0.5 0.2-1 0.5-1.5 0.7q-1.1 0.5-2.3 0.9-59.1 23.5-118.3 46.9c-1 0.4-2 0.9-3 1.2-0.4 0.2-0.9 0.2-1.3 0.2q-0.2-0.2-0.5-0.1z"/>
	<path id="Layer" class="s0" d="m587.3 470.7c0-0.6-0.1-1.3-0.1-2q0-12.1 0-24.1 0-1 0.2-2c0-0.3 0.2-0.6 0.4-0.7q1.3-0.7 2.7-1.2 13.6-5.4 27.3-10.9 46.6-18.5 93.2-37c1-0.4 2-0.9 3.2-1 0.2 0 0.5 0.2 0.7 0.4 0.1 0 0.1 0.2 0.1 0.4 0 0.4 0.1 0.8 0.1 1.2q0 12.2 0 24.5c0 0.5-0.1 1.1-0.2 1.6 0 0.3-0.2 0.5-0.4 0.7-0.8 0.5-1.7 0.8-2.6 1.2q-15.4 6.1-30.8 12.2-45.1 17.9-90.2 35.8-1.3 0.5-2.7 1.1-0.4-0.1-0.9-0.2z"/>
	<path id="Layer" class="s0" d="m547.1 454.1q0 1.3 0 2.5 0 11.2 0 22.4 0 1.5-0.1 2.9c0 0.6-0.4 1-0.9 1.3q-1.3 0.6-2.7 1.1-8.1 3.2-16.2 6.4-51.2 20.4-102.4 40.7c-1 0.4-2 0.9-3.1 1q-1.2 0-2.4-0.1c0-0.8-0.1-1.6-0.1-2.4q0-11.2 0-22.4c0-0.8 0-1.7 0.1-2.5 0-0.5 0.4-0.7 0.7-0.9q0.9-0.5 1.9-0.9 14.4-5.7 28.9-11.4 45.9-18.3 91.9-36.5 1.7-0.7 3.4-1.5 0.5 0.2 1 0.3z"/>
	<path id="Layer" class="s1" d="m587.4 728.9q3.3 0 6.6 0 57.5 0.1 115.1 0c1.8 0 3.6-0.1 5.4 0.2-0.5 0.3-1 0.5-1.6 0.6q-0.8 0-1.6 0.1-1.7 0-3.4 0-57 0-114.1 0-2.3 0-4.6-0.1c-0.7-0.1-1.3-0.3-1.8-0.8z"/>
	<path id="Layer" class="s1" d="m419.3 532.4q1.2 0 2.4 0c-0.4 0.5-0.9 0.7-1.4 0.8-0.5 0.1-0.9-0.2-1-0.8z"/>
	<path id="Layer" class="s1" d="m420.8 65.7q-0.8 0-1.5 0c-0.1-0.4 0-0.7 0.4-0.9 0.2 0 0.5 0.2 0.7 0.3 0.1 0 0.2 0.1 0.2 0.2q0.1 0.2 0.2 0.4z"/>
	<path id="Layer" class="s1" d="m587.3 470.7q0.5 0.1 0.9 0.2c-0.5 0.4-0.6 0.4-0.9-0.2z"/>
	<path id="Layer" class="s1" d="m420 556q-0.1 0.4-0.5 0.5 0-0.5 0.5-0.5z"/>
	<path id="Layer" class="s1" d="m419.5 587.1q0.2-0.1 0.4 0.1c-0.2 0.3-0.4 0.4-0.4-0.1z"/>
	<path id="Layer" class="s1" d="m265.1 537.4c-0.1-0.6-0.2-1.1-0.2-1.6 0-1.3 0-2.5 0-3.8q0-57.7 0-115.4c0-1.4 0-2.8 0-4.2 0-1 0.3-1.8 1.1-2.5 0.6-0.6 1.2-1.2 1.7-1.8q53.4-54 106.8-108 1.6-1.7 3.3-3.2c0.2-0.2 0.5-0.3 0.7-0.2 0.3 0 0.5 0.2 0.7 0.4 0.1 0.2 0.1 0.5 0.1 0.8q0.1 2.1 0.1 4.1 0 92.2 0 184.4 0 2.3-0.1 4.5c0 0.6-0.2 1.1-0.8 1.4q-1.3 0.5-2.7 1.1-5.9 2.4-11.8 4.7-48 19.3-96 38.6-1 0.4-1.9 0.7-0.5 0-1 0z"/>
	<path id="Layer" class="s1" d="m265.1 727.5c0-0.4-0.2-0.8-0.2-1.2q0-1.9 0-3.7 0-25.3 0-50.6c0-1.4 0-2.8 0-4.2 0.1-0.7 0.5-1.3 1.2-1.6q0.6-0.2 1.1-0.4 3.8-1.6 7.6-3.1 49.6-19.9 99.1-39.8c1.4-0.5 2.8-1 4.2-1.6 0.5-0.1 1.2 0.3 1.2 0.8q0.1 0.6 0.1 1.2 0 1.3 0 2.5 0 48.8 0 97.5c0 1.4 0.1 2.8-0.2 4.2q-3.3 0-6.6 0-50.8 0-101.7 0-2.9 0-5.8 0z"/>
	<path id="Layer" class="s0" d="m379.3 567.1c0 1 0.1 1.9 0.1 2.9q0 12.2 0 24.5c0 0.9-0.1 1.9-0.1 2.9-0.1 0.4-0.4 0.7-0.7 0.9q-1.3 0.7-2.6 1.2-9.4 3.8-18.7 7.5-43.1 17.3-86.1 34.6-2.5 1-5 1.9c-0.2 0-0.6 0-0.8-0.1-0.2-0.2-0.3-0.5-0.4-0.7-0.1-0.3-0.1-0.6-0.1-0.8q0-1.1 0-2.1 0-11.8 0-23.7 0-1.4 0.1-2.9c0.1-0.4 0.2-0.8 0.7-0.9 1.2-0.6 2.4-1.2 3.7-1.7q21-8.4 41.9-16.8 32-12.8 64-25.7 1.6-0.6 3.1-1.3 0.4 0.1 0.9 0.3z"/>
	<path id="Layer" class="s0" d="m264.9 574.9q0-5.4 0-10.8 0-1.2 0.1-2.5c0-0.6 0.3-1.1 0.8-1.3q1.5-0.7 3-1.3 8.7-3.5 17.5-7 44.5-17.9 89.1-35.8c0.9-0.4 1.8-0.7 2.7-1 0.5-0.2 1.1 0.1 1.2 0.7 0 0.4 0.1 0.8 0.1 1.2q0 12.2 0 24.5c0 0.5-0.1 1.1-0.2 1.6q0 0.5-0.4 0.7c-0.5 0.3-0.9 0.6-1.4 0.8q-6.5 2.6-13 5.2-47 18.9-94 37.7c-1.5 0.6-3 1.4-4.6 1.7-0.3 0.1-0.6-0.1-0.7-0.4 0-0.2-0.2-0.5-0.2-0.7q0-1.5 0-2.9 0-5.2 0-10.4z"/>
	<path id="Layer" class="s1" d="m265.1 727.5c1.9 0 3.9 0 5.8 0q50.9 0 101.7 0 3.3 0 6.6 0c-0.2 0.3-0.5 0.6-0.9 0.7q-0.6 0.1-1.2 0.1-1.7 0-3.3 0-51.6 0-103.2 0c-1.5 0-3 0.1-4.5-0.1-0.4 0-0.7-0.3-1-0.7z"/>
	<path id="Layer" class="s1" d="m379.3 567.1q-0.4-0.1-0.9-0.3c0.5-0.4 0.6-0.3 0.9 0.3z"/>
	<path id="Layer" class="s1" d="m265.1 537.4q0.5 0 1 0.1c-0.1 0.1-0.2 0.2-0.2 0.2-0.4 0.2-0.5 0.2-0.8-0.3z"/>
	<path id="Layer" class="s1" d="m419.4 480.9q0.4-0.1 0.7 0.2c0 0-0.1 0.2-0.2 0.2q-0.5 0.3-0.5-0.4z"/>
	<path id="Layer" class="s1" d="m535.9 728.1c0.1-0.3 0.4-0.5 0.8-0.6-0.2 0.6-0.2 0.6-0.8 0.6z"/>
	<path id="Layer" class="s1" d="m536.8 453.3q-0.5-0.2-0.9-0.4c0.5-0.3 0.7-0.3 0.9 0.4z"/>
	<path id="Layer" class="s1" d="m266 752.6q-0.4 0.3-0.9 0.6c0.2-0.6 0.2-0.6 0.9-0.6z"/>
	<path id="Layer" class="s1" d="m715 444.2q-0.5-0.3-0.9-0.6c0.1 0 0.2-0.1 0.3-0.1 0.5-0.1 0.6 0.1 0.6 0.7z"/>
	<path id="Layer" class="s1" d="m564.2 213.3q-0.5 0-1 0c0.4-0.6 0.5-0.6 1 0z"/>
	<path id="Layer" class="s2" d="m1170.9 639l18.1-59.7h27.3l-29.7 83.7h-31.6l-29.7-83.7h27.4z"/>
	<path id="Layer" fill-rule="evenodd" class="s2" d="m1320.6 627.3h-58.1q0.6 7.8 5.1 12 4.4 4.1 10.8 4.1 9.6 0 13.4-8.1h27.3q-2.1 8.2-7.6 14.8-5.5 6.6-13.7 10.4-8.3 3.7-18.5 3.7-12.3 0-21.9-5.2-9.6-5.3-15-15-5.4-9.8-5.4-22.8 0-13.1 5.4-22.8 5.3-9.8 14.9-15 9.6-5.3 22-5.3c8.3 0 15.3 1.7 21.6 5.1q9.5 5.1 14.8 14.6 5.3 9.4 5.3 22 0 3.6-0.4 7.5zm-25.8-14.2q0-6.6-4.5-10.5-4.5-3.9-11.3-3.9c-4.5 0-7.9 1.2-10.8 3.7q-4.5 3.8-5.5 10.7z"/>
	<path id="Layer" class="s2" d="m1386.4 582.4q6.8-4 15-4v27.2h-7q-9.6 0-14.4 4.1-4.8 4.1-4.8 14.5v38.8h-25.7v-83.7h25.7v14q4.5-6.9 11.2-10.9z"/>
	<path id="Layer" fill-rule="evenodd" class="s2" d="m1476 581.7q6.7 3.6 10.3 9.5v-11.9h25.7v83.6q0 11.5-4.6 20.9-4.6 9.4-13.9 14.9-9.4 5.6-23.4 5.6-18.6 0-30.1-8.8-11.6-8.8-13.2-23.8h25.3q1.2 4.8 5.7 7.6 4.5 2.8 11.1 2.8 8 0 12.7-4.6 4.7-4.6 4.7-14.6v-11.9q-3.7 5.9-10.3 9.6-6.6 3.6-15.5 3.6-10.3 0-18.7-5.3-8.4-5.3-13.3-15.2-4.9-9.8-4.9-22.7 0-12.9 4.9-22.6 4.9-9.8 13.3-15 8.4-5.3 18.7-5.3 8.9 0 15.5 3.6zm5 24.3q-5.3-5.5-13-5.5-7.6 0-13 5.5-5.3 5.4-5.3 15 0 9.6 5.3 15.3 5.4 5.6 13 5.6 7.7 0 13-5.6 5.3-5.5 5.3-15.1 0-9.6-5.3-15.2z"/>
	<path id="Layer" class="s2" d="m1571.2 552v111h-25.6v-111z"/>
	<path id="Layer" fill-rule="evenodd" class="s2" d="m1683.3 627.3h-58.1q0.6 7.8 5 12 4.5 4.1 10.9 4.1 9.6 0 13.4-8.1h27.3q-2.1 8.2-7.6 14.8-5.5 6.6-13.7 10.4-8.3 3.7-18.5 3.7-12.3 0-21.9-5.2-9.6-5.3-15-15-5.4-9.8-5.4-22.8 0-13.1 5.3-22.8 5.4-9.8 15-15 9.6-5.3 22-5.3c8.3 0 15.3 1.7 21.6 5.1q9.5 5.1 14.8 14.6 5.3 9.4 5.3 22 0 3.6-0.4 7.5zm-25.8-14.2q0-6.6-4.5-10.5-4.5-3.9-11.3-3.9c-4.5 0-7.9 1.2-10.9 3.7q-4.4 3.8-5.4 10.7z"/>
	<path id="Layer" class="s2" d="m1714.1 566.6q-4.3-3.9-4.3-9.8c0-3.9 1.5-7.3 4.3-10q4.3-3.9 11-3.9c4.5 0 8 1.3 10.9 3.9q4.3 4 4.3 10c0 4-1.4 7.2-4.3 9.8q-4.3 4-10.9 4c-4.4 0-8.1-1.3-11-4zm23.8 12.7v83.7h-25.7v-83.7z"/>
	<path id="Layer" class="s2" d="m1771.7 598.4q5.3-9.8 14.8-15 9.6-5.3 21.9-5.3 15.7 0 26.3 8.3 10.6 8.2 13.9 23.2h-27.3q-3.5-9.6-13.4-9.6-7 0-11.2 5.5-4.2 5.5-4.2 15.7 0 10.2 4.2 15.6 4.2 5.5 11.2 5.5 9.9 0 13.4-9.6h27.3q-3.3 14.7-14 23.1-10.6 8.4-26.2 8.4-12.3 0-21.8-5.2-9.6-5.3-14.9-15-5.3-9.8-5.3-22.8 0-13.1 5.3-22.8z"/>
	<path id="Layer" class="s2" d="m1951.8 588q8.7 9.5 8.7 26.1v48.9h-25.5v-45.4q0-8.4-4.4-13.1-4.3-4.6-11.7-4.6-7.3 0-11.7 4.6-4.3 4.7-4.3 13.1v45.4h-25.7v-111h25.7v38.6q3.9-5.6 10.6-8.9 6.8-3.3 15.2-3.3 14.4 0 23.1 9.5z"/>
	<path id="Layer" fill-rule="evenodd" class="s2" d="m2071.8 627.3h-58.1q0.6 7.8 5 12 4.5 4.1 10.9 4.1 9.6 0 13.4-8.1h27.3q-2.1 8.2-7.6 14.8-5.5 6.6-13.7 10.4-8.3 3.7-18.5 3.7-12.3 0-21.9-5.2-9.6-5.3-15-15-5.4-9.8-5.4-22.8 0-13.1 5.3-22.8 5.4-9.8 15-15 9.6-5.3 22-5.3c8.3 0 15.3 1.7 21.6 5.1q9.5 5.1 14.8 14.6 5.3 9.4 5.3 22 0 3.6-0.4 7.5zm-25.8-14.2q0-6.6-4.5-10.5-4.5-3.9-11.3-3.9c-4.5 0-7.9 1.2-10.9 3.7q-4.4 3.8-5.4 10.7z"/>
	<path id="Layer" class="s2" d="m2175.2 588q8.8 9.5 8.8 26.1v48.9h-25.5v-45.4q0-8.4-4.4-13.1-4.3-4.6-11.7-4.6-7.3 0-11.7 4.6-4.3 4.7-4.3 13.1v45.4h-25.7v-83.7h25.7v11.1q3.9-5.5 10.5-8.8 6.6-3.2 14.8-3.2 14.7 0 23.5 9.5z"/>
	<path id="Layer" class="s2" d="m2266.1 625.8q-4.3-4-4.3-9.9c0-3.9 1.4-7.3 4.3-10q4.3-4.1 11-4.1c4.5 0 8.1 1.4 10.9 4.1q4.3 4 4.3 10c0 4-1.4 7.2-4.3 9.9q-4.3 3.9-10.9 3.9c-4.4 0-8.2-1.3-11-3.9z"/>
	<path id="Layer" class="s2" d="m2372.1 566.6q-4.2-3.9-4.2-9.8c0-3.9 1.4-7.3 4.2-10q4.3-3.9 11.1-3.9c4.5 0 8 1.3 10.9 3.9q4.2 4 4.2 10c0 4-1.4 7.2-4.2 9.8q-4.3 4-10.9 4c-4.4 0-8.2-1.3-11.1-4zm23.8 12.7v83.7h-25.6v-83.7z"/>
	<path id="Layer" class="s2" d="m2504 588q8.8 9.5 8.8 26.1v48.9h-25.5v-45.4q0-8.4-4.4-13.1-4.3-4.6-11.7-4.6-7.3 0-11.7 4.6-4.3 4.7-4.3 13.1v45.4h-25.7v-83.7h25.7v11.1q3.9-5.5 10.5-8.8 6.6-3.2 14.8-3.2 14.7 0 23.5 9.5z"/>
	<path id="Layer" class="s2" d="m2592.3 641.3v21.7h-13.1q-13.9 0-21.7-6.8-7.8-6.8-7.8-22.3v-33.3h-10.2v-21.3h10.2v-20.4h25.6v20.4h16.8v21.3h-16.8v33.6q0 3.8 1.8 5.4 1.8 1.7 6 1.7z"/>
	<path id="Layer" fill-rule="evenodd" class="s2" d="m2700 627.3h-58.1q0.6 7.8 5 12 4.5 4.1 10.9 4.1 9.6 0 13.4-8.1h27.3q-2.1 8.2-7.6 14.8-5.5 6.6-13.7 10.4-8.3 3.7-18.5 3.7-12.3 0-21.9-5.2-9.6-5.3-15-15-5.4-9.8-5.4-22.8 0-13.1 5.3-22.8 5.4-9.8 15-15 9.6-5.3 22-5.3c8.3 0 15.3 1.7 21.6 5.1q9.5 5.1 14.8 14.6 5.3 9.4 5.3 22 0 3.6-0.4 7.5zm-25.8-14.2q0-6.6-4.5-10.5-4.5-3.9-11.3-3.9c-4.5 0-7.9 1.2-10.8 3.7q-4.5 3.8-5.5 10.7z"/>
	<path id="Layer" fill-rule="evenodd" class="s2" d="m2776.2 581.7q6.7 3.6 10.3 9.5v-11.9h25.7v83.6q0 11.5-4.6 20.9-4.6 9.4-14 14.9-9.3 5.6-23.3 5.6-18.6 0-30.1-8.8-11.6-8.8-13.2-23.8h25.3q1.2 4.8 5.7 7.6 4.5 2.8 11.1 2.8 8 0 12.7-4.6 4.7-4.6 4.7-14.6v-11.9q-3.7 5.9-10.3 9.6-6.6 3.6-15.5 3.6-10.3 0-18.7-5.3-8.4-5.3-13.3-15.2-4.9-9.8-4.9-22.7 0-12.9 4.9-22.6 4.9-9.8 13.3-15 8.4-5.3 18.7-5.3 8.9 0 15.5 3.6zm5 24.3q-5.3-5.5-13-5.5-7.6 0-13 5.5-5.3 5.4-5.3 15 0 9.6 5.3 15.3 5.4 5.6 13 5.6 7.6 0 13-5.6 5.3-5.5 5.3-15.1 0-9.6-5.3-15.2z"/>
	<path id="Layer" class="s2" d="m2882.7 582.4q6.7-4 15-4v27.2h-7.1q-9.6 0-14.4 4.1-4.8 4.1-4.8 14.5v38.8h-25.6v-83.7h25.6v14q4.5-6.9 11.3-10.9z"/>
	<path id="Layer" class="s2" d="m2926.8 566.6q-4.2-3.9-4.2-9.8c0-3.9 1.4-7.3 4.2-10q4.3-3.9 11.1-3.9c4.5 0 8 1.3 10.9 3.9q4.2 4 4.2 10c0 4-1.4 7.2-4.2 9.8q-4.3 4-10.9 4c-4.4 0-8.2-1.3-11.1-4zm23.8 12.7v83.7h-25.6v-83.7z"/>
	<path id="Layer" fill-rule="evenodd" class="s2" d="m3062.7 627.3h-58.1q0.6 7.8 5 12 4.4 4.1 10.9 4.1 9.6 0 13.4-8.1h27.3q-2.1 8.2-7.6 14.8-5.5 6.6-13.7 10.4-8.3 3.7-18.5 3.7-12.3 0-21.9-5.2-9.6-5.3-15-15-5.4-9.8-5.4-22.8 0-13.1 5.3-22.8 5.4-9.8 15-15 9.6-5.3 22-5.3c8.3 0 15.3 1.7 21.6 5.1q9.5 5.1 14.8 14.6 5.3 9.4 5.3 22 0 3.6-0.4 7.5zm-25.8-14.2q0-6.6-4.5-10.5-4.5-3.9-11.3-3.9c-4.5 0-7.9 1.2-10.9 3.7q-4.4 3.8-5.4 10.7z"/>
	<path id="Layer" class="s2" d="m3128.5 582.4q6.8-4 15-4v27.2h-7q-9.6 0-14.4 4.1-4.8 4.1-4.8 14.5v38.8h-25.7v-83.7h25.7v14q4.5-6.9 11.2-10.9z"/>
	<path id="Layer" fill-rule="evenodd" class="s2" d="m3249.3 627.3h-58.1q0.6 7.8 5 12 4.4 4.1 10.9 4.1 9.6 0 13.4-8.1h27.3q-2.1 8.2-7.6 14.8-5.5 6.6-13.7 10.4-8.3 3.7-18.5 3.7-12.3 0-21.9-5.2-9.6-5.3-15-15-5.4-9.8-5.4-22.8 0-13.1 5.3-22.8 5.4-9.8 15-15 9.6-5.3 22-5.3c8.3 0 15.3 1.7 21.6 5.1q9.5 5.1 14.8 14.6 5.3 9.4 5.3 22 0 3.6-0.4 7.5zm-25.8-14.2q0-6.6-4.5-10.5-4.5-3.9-11.3-3.9c-4.5 0-7.9 1.2-10.9 3.7q-4.4 3.8-5.4 10.7z"/>
	<path id="Layer" class="s2" d="m3352.7 588q8.8 9.5 8.8 26.1v48.9h-25.5v-45.4q0-8.4-4.4-13.1-4.3-4.6-11.7-4.6-7.3 0-11.7 4.6-4.3 4.7-4.3 13.1v45.4h-25.7v-83.7h25.7v11.1q3.9-5.5 10.5-8.8 6.6-3.2 14.8-3.2 14.7 0 23.5 9.5z"/>
	<path id="Layer" class="s2" d="m3443.6 625.8q-4.3-4-4.3-9.9c0-3.9 1.4-7.3 4.3-10q4.3-4.1 11-4.1c4.5 0 8 1.4 10.9 4.1q4.3 4 4.3 10c0 4-1.5 7.2-4.3 9.9q-4.3 3.9-10.9 3.9c-4.4 0-8.2-1.3-11-3.9z"/>
	<path id="Layer" fill-rule="evenodd" class="s2" d="m3563.7 659q-9.8-5.3-15.4-15-5.6-9.8-5.6-22.8c0-8.7 1.9-16.2 5.7-22.7q5.7-9.9 15.6-15.1 9.9-5.3 22.2-5.3 12.3 0 22.2 5.3 9.9 5.2 15.6 15.1 5.7 9.8 5.7 22.7 0 12.9-5.8 22.7-5.8 9.8-15.8 15.1-10 5.2-22.2 5.2-12.3 0-22.2-5.2zm34.7-22.4q5.2-5.4 5.2-15.4-0.1-10.1-5.1-15.5-5-5.4-12.3-5.4c-4.9 0-9.2 1.8-12.5 5.4q-4.9 5.3-4.9 15.5c0 6.8 1.6 11.8 4.8 15.4q4.9 5.4 12.3 5.4 7.3 0 12.5-5.4z"/>
	<path id="Layer" fill-rule="evenodd" class="s2" d="m3694.3 581.7q6.6-3.6 15.5-3.6 10.3 0 18.7 5.3 8.4 5.2 13.3 15 4.9 9.7 4.9 22.6 0 12.9-4.9 22.7-4.9 9.9-13.3 15.2-8.4 5.3-18.7 5.3-8.7 0-15.4-3.6-6.7-3.6-10.4-9.3v51.6h-25.7v-123.6h25.7v11.9q3.7-5.9 10.3-9.5zm20.9 24.2q-5.3-5.4-13.1-5.4c-5.2 0-9.4 1.8-13 5.5q-5.3 5.6-5.3 15.2 0 9.6 5.3 15.1 5.4 5.6 13 5.6 7.7 0 13.1-5.6 5.4-5.7 5.4-15.3 0-9.6-5.4-15.1z"/>
	<path id="Layer" class="s2" d="m3821.8 641.3v21.7h-13.1q-13.9 0-21.7-6.8-7.8-6.8-7.8-22.3v-33.3h-10.2v-21.3h10.2v-20.4h25.6v20.4h16.8v21.3h-16.8v33.6q0 3.8 1.8 5.4 1.8 1.7 6 1.7z"/>
	<path id="Layer" class="s2" d="m3852.9 566.6q-4.2-3.9-4.2-9.8c0-3.9 1.4-7.3 4.2-10q4.3-3.9 11.1-3.9c4.5 0 8 1.3 10.8 3.9q4.3 4 4.3 10c0 4-1.4 7.2-4.3 9.8q-4.2 4-10.8 4c-4.4 0-8.2-1.3-11.1-4zm23.8 12.7v83.7h-25.6v-83.7z"/>
	<path id="Layer" class="s2" d="m4041.9 587.9q9.3 9.4 9.3 26.2v48.9h-25.5v-45.4q0-8.1-4.3-12.5-4.3-4.5-11.8-4.5-7.5 0-11.8 4.5-4.2 4.4-4.3 12.5v45.4h-25.5v-45.4q0.1-8.1-4.2-12.5-4.3-4.5-11.8-4.5-7.5 0-11.8 4.5-4.3 4.4-4.3 12.5v45.4h-25.6v-83.7h25.6v10.5q3.9-5.2 10.2-8.3 6.3-3.1 14.3-3.1 9.4 0 16.9 4.1 7.4 4 11.6 11.5 4.3-6.9 11.8-11.2 7.5-4.4 16.4-4.4 15.6 0 24.8 9.5z"/>
	<path id="Layer" class="s2" d="m4086 566.6q-4.2-3.9-4.2-9.8c0-3.9 1.4-7.3 4.2-10q4.3-3.9 11.1-3.9c4.5 0 8 1.3 10.8 3.9q4.3 4 4.3 10c0 4-1.4 7.2-4.3 9.8q-4.2 4-10.8 4c-4.4 0-8.2-1.3-11.1-4zm23.8 12.7v83.7h-25.6v-83.7z"/>
	<path id="Layer" fill-rule="evenodd" class="s2" d="m4221.9 627.3h-58.1q0.6 7.8 5 12 4.4 4.1 10.9 4.1 9.6 0 13.4-8.1h27.3q-2.2 8.2-7.6 14.8-5.5 6.6-13.7 10.4-8.3 3.7-18.5 3.7-12.3 0-21.9-5.2-9.6-5.3-15-15-5.4-9.8-5.4-22.8 0-13.1 5.3-22.8 5.4-9.8 15-15 9.6-5.3 22-5.3c8.3 0 15.3 1.7 21.6 5.1q9.4 5.1 14.8 14.6 5.3 9.4 5.3 22 0 3.6-0.4 7.5zm-25.8-14.2q0-6.6-4.5-10.5-4.5-3.9-11.3-3.9c-4.5 0-7.9 1.2-10.9 3.7q-4.4 3.8-5.4 10.7c0 0 32.1 0 32.1 0z"/>
	<path id="Layer" class="s2" d="m4287.7 582.4q6.7-4 15-4v27.2h-7.1q-9.6 0-14.3 4.1-4.8 4.1-4.8 14.5v38.8h-25.7v-83.7h25.6v14q4.5-6.9 11.3-10.9z"/>
	<path id="Layer" fill-rule="evenodd" class="s2" d="m4408.4 627.3h-58q0.6 7.8 5 12 4.4 4.1 10.9 4.1 9.6 0 13.4-8.1h27.3q-2.2 8.2-7.6 14.8-5.5 6.6-13.7 10.4-8.3 3.7-18.5 3.7-12.3 0-21.9-5.2-9.6-5.3-15-15-5.4-9.8-5.4-22.8 0-13.1 5.3-22.8 5.4-9.8 15-15 9.6-5.3 22-5.3c8.3 0 15.3 1.7 21.6 5.1q9.4 5.1 14.8 14.6 5.3 9.4 5.3 22 0 3.6-0.4 7.5zm-25.8-14.2q0-6.6-4.5-10.5-4.5-3.9-11.3-3.9c-4.5 0-7.9 1.2-10.9 3.7q-4.4 3.8-5.4 10.7c0 0 32.1 0 32.1 0z"/>
	<path id="Layer" class="s2" d="m4511.9 588q8.7 9.5 8.7 26.1v48.9h-25.5v-45.4q0-8.4-4.3-13.1-4.4-4.6-11.7-4.6-7.4 0-11.7 4.6-4.4 4.7-4.4 13.1v45.4h-25.6v-83.7h25.6v11.1q3.9-5.5 10.5-8.8 6.6-3.2 14.9-3.2 14.7 0 23.5 9.5z"/>
	<path id="Layer" class="s3" d="m1137.4 114.1v47.9h-65.1v197.8h-59.9v-197.8h-65.1v-47.9z"/>
	<path id="Layer" fill-rule="evenodd" class="s3" d="m1310.3 359.8l-51.1-92.8h-14.4v92.8h-59.8v-245.7h100.4q29.1 0 49.5 10.1 20.5 10.2 30.6 27.9 10.2 17.6 10.2 39.3 0 24.5-13.8 43.8-13.9 19.2-40.8 27.3l56.7 97.3h-67.6zm-65.4-135.1h37.1q16.4 0 24.7-8.1 8.2-8 8.2-22.7c0-9.8-2.8-16.7-8.2-22.1q-8.3-8-24.7-8h-37.1z"/>
	<path id="Layer" class="s3" d="m1490.5 114.1v245.7h-59.8v-245.7z"/>
	<path id="Layer" class="s3" d="m1592 353.5q-21.4-8.8-34.1-25.9-12.8-17.2-13.5-41.3h63.7q1.4 13.6 9.5 20.8 8 7.2 21 7.2c8.6 0 15.8-2.1 21-6.1q7.7-6.2 7.7-17 0-9.1-6.2-15.1-6.1-5.9-15-9.8-8.9-3.8-25.4-8.7-23.8-7.4-38.8-14.7-15.1-7.4-25.9-21.7-10.9-14.4-10.9-37.5 0-34.3 24.9-53.7 24.8-19.4 64.7-19.4c26.6 0 48.9 6.5 65.5 19.4q24.8 19.4 26.6 54.1h-64.8q-0.7-11.9-8.7-18.7-8.1-6.9-20.7-6.9-10.8 0-17.5 5.8-6.6 5.8-6.6 16.6 0 11.9 11.2 18.6 11.2 6.6 35 14.3 23.8 8.1 38.6 15.4 14.9 7.4 25.8 21.4 10.8 14 10.8 36c0 14.7-3.6 26.8-10.7 38.2q-10.7 17.2-31 27.3-20.3 10.1-47.9 10.1c-18.4 0-34.1-2.9-48.3-8.7z"/>
	<path id="Layer" class="s3" d="m1944.1 114.1v47.9h-100.1v51.8h74.9v46.6h-74.9v99.4h-59.8v-245.7z"/>
	<path id="Layer" class="s3" d="m2051.9 114.1v147q0 22 10.8 33.9 10.9 11.9 31.9 11.9 21 0 32.2-11.9 11.2-11.9 11.2-33.9v-147h59.8v146.6q0 32.9-14 55.7-14 22.7-37.6 34.3-23.6 11.5-52.6 11.5-29.1 0-52-11.3-23-11.4-36.2-34.3-13.3-23-13.3-55.9v-146.6c0 0 59.8 0 59.8 0z"/>
	<path id="Layer" class="s3" d="m2297.9 353.5q-21.3-8.8-34.1-25.9-12.8-17.2-13.4-41.3h63.7q1.3 13.6 9.4 20.8 8.1 7.2 21 7.2c8.6 0 15.9-2.1 21-6.1q7.7-6.2 7.7-17 0-9.1-6.1-15.1-6.1-5.9-15.1-9.8-8.9-3.8-25.4-8.7-23.8-7.4-38.8-14.7-15.1-7.4-25.9-21.7-10.9-14.4-10.9-37.5 0-34.3 24.9-53.7 24.8-19.4 64.7-19.4c26.6 0 48.9 6.5 65.5 19.4q24.8 19.4 26.6 54.1h-64.8q-0.7-11.9-8.7-18.7-8.1-6.9-20.7-6.9-10.8 0-17.5 5.8-6.6 5.8-6.6 16.6 0 11.9 11.2 18.6 11.2 6.6 35 14.3 23.8 8.1 38.7 15.4 14.8 7.4 25.7 21.4 10.8 14 10.8 36c0 14.7-3.5 26.8-10.6 38.2q-10.7 17.2-31 27.3-20.3 10.1-48 10.1c-18.4 0-34-2.9-48.3-8.7z"/>
	<path id="Layer" fill-rule="evenodd" class="s3" d="m2643 316.4h-91.7l-14.7 43.4h-62.6l88.9-245.7h69.3l88.9 245.7h-63.4zm-15.4-46.2l-30.4-90-30.1 90z"/>
	<path id="Layer" class="s3" d="m2862.8 171.7q15.8-28.6 43.9-44.5 28.2-15.9 63.9-15.9 43.8 0 74.9 23.1 31.2 23.1 41.7 63h-65.8q-7.4-15.4-20.8-23.5-13.5-8-30.7-8-27.6 0-44.8 19.2-17.1 19.3-17.1 51.5 0 32.2 17.1 51.4 17.2 19.3 44.8 19.3 17.2 0 30.7-8.1 13.4-8 20.8-23.4h65.8q-10.5 39.9-41.7 62.8-31.1 22.9-74.9 22.9-35.7 0-63.9-15.9-28.1-15.9-43.9-44.3-15.7-28.3-15.7-64.7 0-36.4 15.7-64.9z"/>
	<path id="Layer" fill-rule="evenodd" class="s3" d="m3194.1 346.1q-28.9-16.1-45.8-44.9-17-28.9-17-65 0-36 17-64.7 16.9-28.7 45.8-44.8 28.9-16.1 63.5-16.1 34.7 0 63.6 16.1 28.8 16.1 45.5 44.8 16.6 28.7 16.6 64.7 0 36.1-16.8 65-16.8 28.8-45.5 44.9-28.7 16.1-63.4 16.1-34.6 0-63.5-16.1zm110.6-58.1q17.7-19.6 17.7-51.8c0-21.4-5.9-39-17.7-52q-17.7-19.4-47.1-19.4c-19.6 0-35.6 6.4-47.4 19.3q-17.7 19.2-17.7 52.1c0 22 5.9 39 17.7 52q17.7 19.4 47.4 19.4c19.9 0 35.3-6.5 47.1-19.6z"/>
	<path id="Layer" class="s3" d="m3653.8 359.8h-59.8l-100.1-151.6v151.6h-59.9v-245.7h59.9l100.1 152.2v-152.2h59.8z"/>
	<path id="Layer" class="s3" d="m3934.5 359.8h-59.8l-100.1-151.6v151.6h-59.9v-245.7h59.9l100.1 152.2v-152.2h59.8z"/>
	<path id="Layer" class="s3" d="m4055.3 162v49.7h80.1v46.2h-80.1v53.9h90.6v48h-150.5v-245.7h150.5v47.9z"/>
	<path id="Layer" class="s3" d="m4207.9 171.7q15.7-28.6 43.9-44.5 28.2-15.9 63.9-15.9 43.7 0 74.9 23.1 31.1 23.1 41.6 63h-65.8q-7.3-15.4-20.8-23.5-13.5-8-30.6-8-27.7 0-44.8 19.2-17.2 19.3-17.2 51.5 0 32.2 17.2 51.4 17.1 19.3 44.8 19.3 17.1 0 30.6-8.1 13.5-8 20.8-23.4h65.8q-10.5 39.9-41.6 62.8-31.2 22.9-74.9 22.9-35.7 0-63.9-15.9-28.2-15.9-43.9-44.3-15.8-28.3-15.8-64.7 0-36.4 15.8-64.9z"/>
	<path id="Layer" class="s3" d="m4663.2 114.1v47.9h-65.1v197.8h-59.8v-197.8h-65.1v-47.9z"/>
</svg>